<mxfile host="app.diagrams.net" agent="Mozilla/5.0 (Windows NT 10.0; Win64; x64) AppleWebKit/537.36 (KHTML, like Gecko) Chrome/133.0.0.0 Safari/537.36" version="26.0.13">
  <diagram id="R2lEEEUBdFMjLlhIrx00" name="Page-1">
    <mxGraphModel dx="3134" dy="1846" grid="1" gridSize="13" guides="1" tooltips="1" connect="1" arrows="0" fold="1" page="1" pageScale="1" pageWidth="850" pageHeight="1100" math="0" shadow="0" extFonts="Permanent Marker^https://fonts.googleapis.com/css?family=Permanent+Marker">
      <root>
        <mxCell id="0" />
        <mxCell id="1" parent="0" />
        <mxCell id="f6Gl58Puo9PYDMiO8ByM-1" value="Knjiga" style="rounded=0;whiteSpace=wrap;html=1;fontSize=19;strokeWidth=2;" parent="1" vertex="1">
          <mxGeometry x="280" y="580" width="120" height="60" as="geometry" />
        </mxCell>
        <mxCell id="f6Gl58Puo9PYDMiO8ByM-2" value="&lt;u&gt;ISBN&lt;/u&gt;" style="ellipse;whiteSpace=wrap;html=1;fontSize=19;strokeWidth=2;" parent="1" vertex="1">
          <mxGeometry x="150" y="600" width="100" height="40" as="geometry" />
        </mxCell>
        <mxCell id="f6Gl58Puo9PYDMiO8ByM-5" value="broj_stranica" style="ellipse;whiteSpace=wrap;html=1;fontSize=19;strokeWidth=2;" parent="1" vertex="1">
          <mxGeometry x="104" y="559" width="117" height="41" as="geometry" />
        </mxCell>
        <mxCell id="f6Gl58Puo9PYDMiO8ByM-7" value="naslov" style="ellipse;whiteSpace=wrap;html=1;fontSize=19;strokeWidth=2;" parent="1" vertex="1">
          <mxGeometry x="180" y="525.5" width="100" height="40" as="geometry" />
        </mxCell>
        <mxCell id="f6Gl58Puo9PYDMiO8ByM-8" value="" style="endArrow=none;html=1;rounded=0;exitX=1;exitY=0.5;exitDx=0;exitDy=0;entryX=0;entryY=0.5;entryDx=0;entryDy=0;fontSize=19;" parent="1" source="f6Gl58Puo9PYDMiO8ByM-2" target="f6Gl58Puo9PYDMiO8ByM-1" edge="1">
          <mxGeometry relative="1" as="geometry">
            <mxPoint x="220" y="680" as="sourcePoint" />
            <mxPoint x="380" y="680" as="targetPoint" />
          </mxGeometry>
        </mxCell>
        <mxCell id="f6Gl58Puo9PYDMiO8ByM-9" value="" style="endArrow=none;html=1;rounded=0;exitX=0.92;exitY=0.875;exitDx=0;exitDy=0;entryX=0.125;entryY=-0.033;entryDx=0;entryDy=0;exitPerimeter=0;entryPerimeter=0;fontSize=19;" parent="1" source="f6Gl58Puo9PYDMiO8ByM-7" target="f6Gl58Puo9PYDMiO8ByM-1" edge="1">
          <mxGeometry relative="1" as="geometry">
            <mxPoint x="240" y="630" as="sourcePoint" />
            <mxPoint x="290" y="620" as="targetPoint" />
          </mxGeometry>
        </mxCell>
        <mxCell id="f6Gl58Puo9PYDMiO8ByM-10" value="" style="endArrow=none;html=1;rounded=0;exitX=0.5;exitY=0;exitDx=0;exitDy=0;entryX=0.75;entryY=1;entryDx=0;entryDy=0;fontSize=19;" parent="1" source="f6Gl58Puo9PYDMiO8ByM-15" target="f6Gl58Puo9PYDMiO8ByM-1" edge="1">
          <mxGeometry relative="1" as="geometry">
            <mxPoint x="329" y="512" as="sourcePoint" />
            <mxPoint x="305" y="588" as="targetPoint" />
          </mxGeometry>
        </mxCell>
        <mxCell id="8CZMm7A_pFt9U8UrvjIo-1" value="(1,N)" style="edgeLabel;html=1;align=center;verticalAlign=middle;resizable=0;points=[];fontSize=19;" parent="f6Gl58Puo9PYDMiO8ByM-10" connectable="0" vertex="1">
          <mxGeometry x="0.7766" y="1" relative="1" as="geometry">
            <mxPoint x="2" as="offset" />
          </mxGeometry>
        </mxCell>
        <mxCell id="f6Gl58Puo9PYDMiO8ByM-12" value="" style="endArrow=none;html=1;rounded=0;exitX=1;exitY=0.5;exitDx=0;exitDy=0;entryX=0;entryY=0.25;entryDx=0;entryDy=0;fontSize=19;" parent="1" source="f6Gl58Puo9PYDMiO8ByM-5" target="f6Gl58Puo9PYDMiO8ByM-1" edge="1">
          <mxGeometry relative="1" as="geometry">
            <mxPoint x="292" y="585" as="sourcePoint" />
            <mxPoint x="325" y="608" as="targetPoint" />
          </mxGeometry>
        </mxCell>
        <mxCell id="f6Gl58Puo9PYDMiO8ByM-13" value="Autor" style="rounded=0;whiteSpace=wrap;html=1;fontSize=19;strokeWidth=2;" parent="1" vertex="1">
          <mxGeometry x="312.5" y="991.52" width="120" height="60" as="geometry" />
        </mxCell>
        <mxCell id="f6Gl58Puo9PYDMiO8ByM-15" value="Ima" style="rhombus;whiteSpace=wrap;html=1;fontSize=19;strokeWidth=2;" parent="1" vertex="1">
          <mxGeometry x="345" y="805" width="80" height="80" as="geometry" />
        </mxCell>
        <mxCell id="f6Gl58Puo9PYDMiO8ByM-16" value="" style="endArrow=none;html=1;rounded=0;exitX=0.75;exitY=0;exitDx=0;exitDy=0;fontSize=19;entryX=0.5;entryY=1;entryDx=0;entryDy=0;" parent="1" source="f6Gl58Puo9PYDMiO8ByM-13" target="f6Gl58Puo9PYDMiO8ByM-15" edge="1">
          <mxGeometry relative="1" as="geometry">
            <mxPoint x="350" y="190" as="sourcePoint" />
            <mxPoint x="320" y="310" as="targetPoint" />
          </mxGeometry>
        </mxCell>
        <mxCell id="8CZMm7A_pFt9U8UrvjIo-2" value="(1,N)" style="edgeLabel;html=1;align=center;verticalAlign=middle;resizable=0;points=[];fontSize=19;" parent="f6Gl58Puo9PYDMiO8ByM-16" connectable="0" vertex="1">
          <mxGeometry x="-0.8737" y="-1" relative="1" as="geometry">
            <mxPoint x="-5" y="-16" as="offset" />
          </mxGeometry>
        </mxCell>
        <mxCell id="f6Gl58Puo9PYDMiO8ByM-17" value="ime" style="ellipse;whiteSpace=wrap;html=1;fontSize=19;strokeWidth=2;" parent="1" vertex="1">
          <mxGeometry x="280" y="1097.02" width="100" height="40" as="geometry" />
        </mxCell>
        <mxCell id="f6Gl58Puo9PYDMiO8ByM-18" value="prezime" style="ellipse;whiteSpace=wrap;html=1;fontSize=19;strokeWidth=2;" parent="1" vertex="1">
          <mxGeometry x="483.75" y="958.24" width="110" height="40" as="geometry" />
        </mxCell>
        <mxCell id="f6Gl58Puo9PYDMiO8ByM-19" value="" style="endArrow=none;html=1;rounded=0;exitX=0.318;exitY=0.018;exitDx=0;exitDy=0;entryX=0.25;entryY=1;entryDx=0;entryDy=0;exitPerimeter=0;fontSize=19;" parent="1" source="f6Gl58Puo9PYDMiO8ByM-17" target="f6Gl58Puo9PYDMiO8ByM-13" edge="1">
          <mxGeometry relative="1" as="geometry">
            <mxPoint x="229.5" y="897.75" as="sourcePoint" />
            <mxPoint x="317.5" y="902.75" as="targetPoint" />
          </mxGeometry>
        </mxCell>
        <mxCell id="f6Gl58Puo9PYDMiO8ByM-20" value="" style="endArrow=none;html=1;rounded=0;exitX=0.036;exitY=0.35;exitDx=0;exitDy=0;entryX=1;entryY=0.5;entryDx=0;entryDy=0;exitPerimeter=0;fontSize=19;" parent="1" source="f6Gl58Puo9PYDMiO8ByM-18" target="f6Gl58Puo9PYDMiO8ByM-13" edge="1">
          <mxGeometry relative="1" as="geometry">
            <mxPoint x="239.5" y="907.75" as="sourcePoint" />
            <mxPoint x="347.5" y="932.75" as="targetPoint" />
          </mxGeometry>
        </mxCell>
        <mxCell id="f6Gl58Puo9PYDMiO8ByM-26" value="" style="endArrow=none;html=1;rounded=0;exitX=0.316;exitY=0.871;exitDx=0;exitDy=0;fontSize=19;exitPerimeter=0;entryX=0.627;entryY=0.019;entryDx=0;entryDy=0;entryPerimeter=0;" parent="1" source="f6Gl58Puo9PYDMiO8ByM-28" target="f6Gl58Puo9PYDMiO8ByM-1" edge="1">
          <mxGeometry relative="1" as="geometry">
            <mxPoint x="669" y="493" as="sourcePoint" />
            <mxPoint x="370" y="570" as="targetPoint" />
          </mxGeometry>
        </mxCell>
        <mxCell id="8CZMm7A_pFt9U8UrvjIo-60" value="(1,1)" style="edgeLabel;html=1;align=center;verticalAlign=middle;resizable=0;points=[];fontSize=19;" parent="f6Gl58Puo9PYDMiO8ByM-26" connectable="0" vertex="1">
          <mxGeometry x="0.6132" relative="1" as="geometry">
            <mxPoint x="-1" y="-9" as="offset" />
          </mxGeometry>
        </mxCell>
        <mxCell id="f6Gl58Puo9PYDMiO8ByM-27" value="Izdavač" style="rounded=0;whiteSpace=wrap;html=1;fontSize=19;strokeWidth=2;" parent="1" vertex="1">
          <mxGeometry x="557" y="229.5" width="120" height="60" as="geometry" />
        </mxCell>
        <mxCell id="f6Gl58Puo9PYDMiO8ByM-28" value="Ima" style="rhombus;whiteSpace=wrap;html=1;fontSize=19;strokeWidth=2;" parent="1" vertex="1">
          <mxGeometry x="481" y="369.5" width="80" height="80" as="geometry" />
        </mxCell>
        <mxCell id="f6Gl58Puo9PYDMiO8ByM-29" value="" style="endArrow=none;html=1;rounded=0;exitX=0.5;exitY=1;exitDx=0;exitDy=0;entryX=1;entryY=0;entryDx=0;entryDy=0;fontSize=19;" parent="1" source="f6Gl58Puo9PYDMiO8ByM-27" target="f6Gl58Puo9PYDMiO8ByM-28" edge="1">
          <mxGeometry relative="1" as="geometry">
            <mxPoint x="560" y="400" as="sourcePoint" />
            <mxPoint x="720" y="400" as="targetPoint" />
          </mxGeometry>
        </mxCell>
        <mxCell id="8CZMm7A_pFt9U8UrvjIo-61" value="(1,N)" style="edgeLabel;html=1;align=center;verticalAlign=middle;resizable=0;points=[];fontSize=19;" parent="f6Gl58Puo9PYDMiO8ByM-29" connectable="0" vertex="1">
          <mxGeometry x="-0.62" relative="1" as="geometry">
            <mxPoint as="offset" />
          </mxGeometry>
        </mxCell>
        <mxCell id="f6Gl58Puo9PYDMiO8ByM-30" value="&lt;u&gt;ime&lt;/u&gt;" style="ellipse;whiteSpace=wrap;html=1;fontSize=19;strokeWidth=2;" parent="1" vertex="1">
          <mxGeometry x="739" y="229.5" width="100" height="40" as="geometry" />
        </mxCell>
        <mxCell id="f6Gl58Puo9PYDMiO8ByM-32" value="" style="endArrow=none;html=1;rounded=0;exitX=0.01;exitY=0.775;exitDx=0;exitDy=0;entryX=1.013;entryY=0.425;entryDx=0;entryDy=0;exitPerimeter=0;fontSize=19;entryPerimeter=0;" parent="1" source="f6Gl58Puo9PYDMiO8ByM-30" target="f6Gl58Puo9PYDMiO8ByM-27" edge="1">
          <mxGeometry relative="1" as="geometry">
            <mxPoint x="536" y="133" as="sourcePoint" />
            <mxPoint x="624" y="138" as="targetPoint" />
          </mxGeometry>
        </mxCell>
        <mxCell id="f6Gl58Puo9PYDMiO8ByM-33" value="" style="endArrow=none;html=1;rounded=0;exitX=0;exitY=1;exitDx=0;exitDy=0;entryX=0.612;entryY=-0.004;entryDx=0;entryDy=0;fontSize=19;entryPerimeter=0;" parent="1" source="o7n648XBuUX_tCWZrf2j-13" target="f6Gl58Puo9PYDMiO8ByM-27" edge="1">
          <mxGeometry relative="1" as="geometry">
            <mxPoint x="630.96" y="27" as="sourcePoint" />
            <mxPoint x="578" y="69.5" as="targetPoint" />
          </mxGeometry>
        </mxCell>
        <mxCell id="NqhwIcATW6oFcgkaRpCE-3" value="(1,1)" style="edgeLabel;html=1;align=center;verticalAlign=middle;resizable=0;points=[];fontSize=19;" parent="f6Gl58Puo9PYDMiO8ByM-33" vertex="1" connectable="0">
          <mxGeometry x="0.4768" y="-2" relative="1" as="geometry">
            <mxPoint as="offset" />
          </mxGeometry>
        </mxCell>
        <mxCell id="f6Gl58Puo9PYDMiO8ByM-34" value="godina_osnivanja" style="ellipse;whiteSpace=wrap;html=1;fontSize=19;strokeWidth=2;" parent="1" vertex="1">
          <mxGeometry x="637" y="319.5" width="154" height="50" as="geometry" />
        </mxCell>
        <mxCell id="f6Gl58Puo9PYDMiO8ByM-35" value="" style="endArrow=none;html=1;rounded=0;exitX=0.036;exitY=0.35;exitDx=0;exitDy=0;entryX=0.75;entryY=1;entryDx=0;entryDy=0;exitPerimeter=0;fontSize=19;" parent="1" source="f6Gl58Puo9PYDMiO8ByM-34" target="f6Gl58Puo9PYDMiO8ByM-27" edge="1">
          <mxGeometry relative="1" as="geometry">
            <mxPoint x="546" y="193" as="sourcePoint" />
            <mxPoint x="654" y="233" as="targetPoint" />
          </mxGeometry>
        </mxCell>
        <mxCell id="f6Gl58Puo9PYDMiO8ByM-36" value="Distributer" style="rounded=0;whiteSpace=wrap;html=1;fontSize=19;strokeWidth=2;" parent="1" vertex="1">
          <mxGeometry x="177" y="156.81999999999994" width="120" height="60" as="geometry" />
        </mxCell>
        <mxCell id="f6Gl58Puo9PYDMiO8ByM-40" value="ime" style="ellipse;whiteSpace=wrap;html=1;fontSize=19;strokeWidth=2;" parent="1" vertex="1">
          <mxGeometry x="47" y="69.52999999999994" width="100" height="40" as="geometry" />
        </mxCell>
        <mxCell id="f6Gl58Puo9PYDMiO8ByM-42" value="" style="endArrow=none;html=1;rounded=0;exitX=0.978;exitY=0.721;exitDx=0;exitDy=0;entryX=0;entryY=0;entryDx=0;entryDy=0;fontSize=19;exitPerimeter=0;" parent="1" source="f6Gl58Puo9PYDMiO8ByM-40" target="f6Gl58Puo9PYDMiO8ByM-36" edge="1">
          <mxGeometry relative="1" as="geometry">
            <mxPoint x="192" y="146.81999999999994" as="sourcePoint" />
            <mxPoint x="280" y="151.81999999999994" as="targetPoint" />
          </mxGeometry>
        </mxCell>
        <mxCell id="f6Gl58Puo9PYDMiO8ByM-44" value="&lt;u&gt;ID&lt;/u&gt;" style="ellipse;whiteSpace=wrap;html=1;fontSize=19;strokeWidth=2;" parent="1" vertex="1">
          <mxGeometry x="47" y="238.28" width="110" height="33" as="geometry" />
        </mxCell>
        <mxCell id="f6Gl58Puo9PYDMiO8ByM-45" value="" style="endArrow=none;html=1;rounded=0;exitX=1;exitY=0;exitDx=0;exitDy=0;entryX=0;entryY=1;entryDx=0;entryDy=0;fontSize=19;" parent="1" source="f6Gl58Puo9PYDMiO8ByM-44" target="f6Gl58Puo9PYDMiO8ByM-36" edge="1">
          <mxGeometry relative="1" as="geometry">
            <mxPoint x="202" y="206.81999999999994" as="sourcePoint" />
            <mxPoint x="310" y="211.81999999999994" as="targetPoint" />
          </mxGeometry>
        </mxCell>
        <mxCell id="f6Gl58Puo9PYDMiO8ByM-46" value="broj_telefona" style="ellipse;whiteSpace=wrap;html=1;fontSize=19;strokeWidth=2;" parent="1" vertex="1">
          <mxGeometry x="150" y="281.4999999999999" width="100" height="40" as="geometry" />
        </mxCell>
        <mxCell id="f6Gl58Puo9PYDMiO8ByM-48" value="" style="endArrow=none;html=1;rounded=0;exitX=0.5;exitY=0;exitDx=0;exitDy=0;entryX=0.358;entryY=0.986;entryDx=0;entryDy=0;fontSize=19;entryPerimeter=0;" parent="1" source="f6Gl58Puo9PYDMiO8ByM-46" target="f6Gl58Puo9PYDMiO8ByM-36" edge="1">
          <mxGeometry relative="1" as="geometry">
            <mxPoint x="192" y="316.82000000000005" as="sourcePoint" />
            <mxPoint x="280" y="351.82000000000005" as="targetPoint" />
          </mxGeometry>
        </mxCell>
        <mxCell id="f6Gl58Puo9PYDMiO8ByM-49" value="" style="endArrow=none;html=1;rounded=0;exitX=0;exitY=1;exitDx=0;exitDy=0;entryX=0.75;entryY=0;entryDx=0;entryDy=0;fontSize=19;" parent="1" source="o7n648XBuUX_tCWZrf2j-15" target="f6Gl58Puo9PYDMiO8ByM-36" edge="1">
          <mxGeometry relative="1" as="geometry">
            <mxPoint x="250.1091270347406" y="85.14213562373106" as="sourcePoint" />
            <mxPoint x="310" y="366.82000000000005" as="targetPoint" />
          </mxGeometry>
        </mxCell>
        <mxCell id="NqhwIcATW6oFcgkaRpCE-1" value="(1,1)" style="edgeLabel;html=1;align=center;verticalAlign=middle;resizable=0;points=[];fontSize=19;" parent="f6Gl58Puo9PYDMiO8ByM-49" vertex="1" connectable="0">
          <mxGeometry x="0.6812" y="1" relative="1" as="geometry">
            <mxPoint x="15" y="-11" as="offset" />
          </mxGeometry>
        </mxCell>
        <mxCell id="f6Gl58Puo9PYDMiO8ByM-50" value="kategorija" style="rounded=0;whiteSpace=wrap;html=1;fontSize=19;strokeWidth=2;" parent="1" vertex="1">
          <mxGeometry x="21.25" y="917.63" width="120" height="60" as="geometry" />
        </mxCell>
        <mxCell id="f6Gl58Puo9PYDMiO8ByM-51" value="naziv" style="ellipse;whiteSpace=wrap;html=1;fontSize=19;strokeWidth=2;" parent="1" vertex="1">
          <mxGeometry x="-33.75" y="852.63" width="100" height="40" as="geometry" />
        </mxCell>
        <mxCell id="f6Gl58Puo9PYDMiO8ByM-52" value="" style="endArrow=none;html=1;rounded=0;exitX=1;exitY=0.5;exitDx=0;exitDy=0;entryX=0.183;entryY=-0.006;entryDx=0;entryDy=0;fontSize=19;entryPerimeter=0;" parent="1" source="f6Gl58Puo9PYDMiO8ByM-51" target="f6Gl58Puo9PYDMiO8ByM-50" edge="1">
          <mxGeometry relative="1" as="geometry">
            <mxPoint x="-48.75" y="1027.63" as="sourcePoint" />
            <mxPoint x="11.25" y="957.63" as="targetPoint" />
          </mxGeometry>
        </mxCell>
        <mxCell id="8CZMm7A_pFt9U8UrvjIo-15" style="edgeStyle=orthogonalEdgeStyle;rounded=0;orthogonalLoop=1;jettySize=auto;html=1;entryX=1;entryY=0.5;entryDx=0;entryDy=0;fontSize=19;exitX=1;exitY=0.5;exitDx=0;exitDy=0;" parent="1" source="f6Gl58Puo9PYDMiO8ByM-53" target="f6Gl58Puo9PYDMiO8ByM-50" edge="1">
          <mxGeometry relative="1" as="geometry">
            <Array as="points">
              <mxPoint x="161.25" y="1057.63" />
              <mxPoint x="161.25" y="947.63" />
            </Array>
          </mxGeometry>
        </mxCell>
        <mxCell id="NqhwIcATW6oFcgkaRpCE-5" value="(0,1)" style="edgeLabel;html=1;align=center;verticalAlign=middle;resizable=0;points=[];fontSize=15;" parent="8CZMm7A_pFt9U8UrvjIo-15" vertex="1" connectable="0">
          <mxGeometry x="-0.5751" y="1" relative="1" as="geometry">
            <mxPoint as="offset" />
          </mxGeometry>
        </mxCell>
        <mxCell id="f6Gl58Puo9PYDMiO8ByM-53" value="ima" style="shape=rhombus;perimeter=rhombusPerimeter;whiteSpace=wrap;html=1;align=center;fontSize=19;strokeWidth=2;" parent="1" vertex="1">
          <mxGeometry x="18.75" y="1027.63" width="125" height="60" as="geometry" />
        </mxCell>
        <mxCell id="f6Gl58Puo9PYDMiO8ByM-54" value="kupac" style="rounded=0;whiteSpace=wrap;html=1;fontSize=19;strokeWidth=2;" parent="1" vertex="1">
          <mxGeometry x="1075" y="246.28" width="120" height="60" as="geometry" />
        </mxCell>
        <mxCell id="f6Gl58Puo9PYDMiO8ByM-55" value="ime" style="ellipse;whiteSpace=wrap;html=1;fontSize=19;strokeWidth=2;" parent="1" vertex="1">
          <mxGeometry x="1125" y="176.28" width="100" height="40" as="geometry" />
        </mxCell>
        <mxCell id="f6Gl58Puo9PYDMiO8ByM-57" value="" style="endArrow=none;html=1;rounded=0;exitX=0.237;exitY=0.935;exitDx=0;exitDy=0;exitPerimeter=0;fontSize=19;entryX=0.667;entryY=0.057;entryDx=0;entryDy=0;entryPerimeter=0;" parent="1" source="f6Gl58Puo9PYDMiO8ByM-55" target="f6Gl58Puo9PYDMiO8ByM-54" edge="1">
          <mxGeometry relative="1" as="geometry">
            <mxPoint x="1177" y="71.28" as="sourcePoint" />
            <mxPoint x="1289" y="105.28" as="targetPoint" />
          </mxGeometry>
        </mxCell>
        <mxCell id="f6Gl58Puo9PYDMiO8ByM-59" value="prezime" style="ellipse;whiteSpace=wrap;html=1;fontSize=19;strokeWidth=2;" parent="1" vertex="1">
          <mxGeometry x="917" y="256.28" width="110" height="40" as="geometry" />
        </mxCell>
        <mxCell id="f6Gl58Puo9PYDMiO8ByM-60" value="" style="endArrow=none;html=1;rounded=0;exitX=1;exitY=0.5;exitDx=0;exitDy=0;entryX=0;entryY=0.25;entryDx=0;entryDy=0;fontSize=19;" parent="1" source="f6Gl58Puo9PYDMiO8ByM-59" target="f6Gl58Puo9PYDMiO8ByM-54" edge="1">
          <mxGeometry relative="1" as="geometry">
            <mxPoint x="1187" y="131.28" as="sourcePoint" />
            <mxPoint x="1295" y="136.28" as="targetPoint" />
          </mxGeometry>
        </mxCell>
        <mxCell id="f6Gl58Puo9PYDMiO8ByM-61" value="&lt;u&gt;broj_telefona&lt;/u&gt;" style="ellipse;whiteSpace=wrap;html=1;fontSize=19;strokeWidth=2;" parent="1" vertex="1">
          <mxGeometry x="923" y="206.28" width="130" height="40" as="geometry" />
        </mxCell>
        <mxCell id="f6Gl58Puo9PYDMiO8ByM-62" value="broj_transakcija" style="ellipse;whiteSpace=wrap;html=1;fontSize=19;strokeWidth=2;" parent="1" vertex="1">
          <mxGeometry x="1255" y="166.28" width="136" height="50" as="geometry" />
        </mxCell>
        <mxCell id="f6Gl58Puo9PYDMiO8ByM-63" value="" style="endArrow=none;html=1;rounded=0;exitX=1;exitY=1;exitDx=0;exitDy=0;entryX=0;entryY=0;entryDx=0;entryDy=0;fontSize=19;" parent="1" source="f6Gl58Puo9PYDMiO8ByM-61" target="f6Gl58Puo9PYDMiO8ByM-54" edge="1">
          <mxGeometry relative="1" as="geometry">
            <mxPoint x="1177" y="241.28" as="sourcePoint" />
            <mxPoint x="1265" y="276.28" as="targetPoint" />
          </mxGeometry>
        </mxCell>
        <mxCell id="f6Gl58Puo9PYDMiO8ByM-64" value="" style="endArrow=none;html=1;rounded=0;exitX=0.246;exitY=0.989;exitDx=0;exitDy=0;entryX=1;entryY=0.25;entryDx=0;entryDy=0;exitPerimeter=0;fontSize=19;" parent="1" source="f6Gl58Puo9PYDMiO8ByM-62" target="f6Gl58Puo9PYDMiO8ByM-54" edge="1">
          <mxGeometry relative="1" as="geometry">
            <mxPoint x="1187" y="251.28" as="sourcePoint" />
            <mxPoint x="1295" y="291.28" as="targetPoint" />
          </mxGeometry>
        </mxCell>
        <mxCell id="f6Gl58Puo9PYDMiO8ByM-65" value="vip_kartica" style="rounded=0;whiteSpace=wrap;html=1;fontSize=19;strokeWidth=2;" parent="1" vertex="1">
          <mxGeometry x="1428" y="614.25" width="120" height="60" as="geometry" />
        </mxCell>
        <mxCell id="f6Gl58Puo9PYDMiO8ByM-66" value="datum_izdavanja" style="ellipse;whiteSpace=wrap;html=1;fontSize=19;strokeWidth=2;" parent="1" vertex="1">
          <mxGeometry x="1326" y="723.65" width="159" height="40" as="geometry" />
        </mxCell>
        <mxCell id="f6Gl58Puo9PYDMiO8ByM-67" value="popust" style="ellipse;whiteSpace=wrap;html=1;fontSize=19;strokeWidth=2;" parent="1" vertex="1">
          <mxGeometry x="1478" y="758.7500000000001" width="110" height="40" as="geometry" />
        </mxCell>
        <mxCell id="f6Gl58Puo9PYDMiO8ByM-68" value="" style="endArrow=none;html=1;rounded=0;exitX=0.326;exitY=-0.007;exitDx=0;exitDy=0;exitPerimeter=0;fontSize=19;entryX=0.122;entryY=0.995;entryDx=0;entryDy=0;entryPerimeter=0;" parent="1" source="f6Gl58Puo9PYDMiO8ByM-66" target="f6Gl58Puo9PYDMiO8ByM-65" edge="1">
          <mxGeometry relative="1" as="geometry">
            <mxPoint x="1680" y="589.25" as="sourcePoint" />
            <mxPoint x="1454" y="678.75" as="targetPoint" />
          </mxGeometry>
        </mxCell>
        <mxCell id="f6Gl58Puo9PYDMiO8ByM-69" value="" style="endArrow=none;html=1;rounded=0;exitX=0.3;exitY=0.059;exitDx=0;exitDy=0;entryX=0.65;entryY=1;entryDx=0;entryDy=0;exitPerimeter=0;fontSize=19;entryPerimeter=0;" parent="1" source="f6Gl58Puo9PYDMiO8ByM-67" target="f6Gl58Puo9PYDMiO8ByM-65" edge="1">
          <mxGeometry relative="1" as="geometry">
            <mxPoint x="1690" y="599.25" as="sourcePoint" />
            <mxPoint x="1798" y="624.25" as="targetPoint" />
          </mxGeometry>
        </mxCell>
        <mxCell id="f6Gl58Puo9PYDMiO8ByM-76" value="račun" style="rounded=0;whiteSpace=wrap;html=1;fontSize=19;strokeWidth=2;" parent="1" vertex="1">
          <mxGeometry x="1043" y="590.2" width="120" height="58" as="geometry" />
        </mxCell>
        <mxCell id="f6Gl58Puo9PYDMiO8ByM-82" value="prodavac" style="rounded=0;whiteSpace=wrap;html=1;fontSize=19;strokeWidth=2;" parent="1" vertex="1">
          <mxGeometry x="1265" y="977.0000000000001" width="120" height="60" as="geometry" />
        </mxCell>
        <mxCell id="f6Gl58Puo9PYDMiO8ByM-83" value="ime" style="ellipse;whiteSpace=wrap;html=1;fontSize=19;strokeWidth=2;" parent="1" vertex="1">
          <mxGeometry x="1400" y="937" width="100" height="40" as="geometry" />
        </mxCell>
        <mxCell id="f6Gl58Puo9PYDMiO8ByM-85" value="" style="endArrow=none;html=1;rounded=0;exitX=0;exitY=0.5;exitDx=0;exitDy=0;entryX=0.99;entryY=0.124;entryDx=0;entryDy=0;fontSize=19;entryPerimeter=0;" parent="1" source="f6Gl58Puo9PYDMiO8ByM-83" target="f6Gl58Puo9PYDMiO8ByM-82" edge="1">
          <mxGeometry relative="1" as="geometry">
            <mxPoint x="1404.5" y="1094.1799999999998" as="sourcePoint" />
            <mxPoint x="1492.5" y="1099.1799999999998" as="targetPoint" />
          </mxGeometry>
        </mxCell>
        <mxCell id="f6Gl58Puo9PYDMiO8ByM-87" value="prezime" style="ellipse;whiteSpace=wrap;html=1;fontSize=19;strokeWidth=2;" parent="1" vertex="1">
          <mxGeometry x="1291" y="1079" width="110" height="40" as="geometry" />
        </mxCell>
        <mxCell id="f6Gl58Puo9PYDMiO8ByM-88" value="" style="endArrow=none;html=1;rounded=0;exitX=0.5;exitY=0;exitDx=0;exitDy=0;entryX=0.61;entryY=1.021;entryDx=0;entryDy=0;fontSize=19;entryPerimeter=0;" parent="1" source="f6Gl58Puo9PYDMiO8ByM-87" target="f6Gl58Puo9PYDMiO8ByM-82" edge="1">
          <mxGeometry relative="1" as="geometry">
            <mxPoint x="1414.5" y="1154.1799999999998" as="sourcePoint" />
            <mxPoint x="1522.5" y="1159.1799999999998" as="targetPoint" />
          </mxGeometry>
        </mxCell>
        <mxCell id="8CZMm7A_pFt9U8UrvjIo-3" value="" style="endArrow=none;html=1;rounded=0;exitX=0.5;exitY=0;exitDx=0;exitDy=0;entryX=0.5;entryY=1;entryDx=0;entryDy=0;fontSize=19;" parent="1" source="f6Gl58Puo9PYDMiO8ByM-1" target="8CZMm7A_pFt9U8UrvjIo-4" edge="1">
          <mxGeometry relative="1" as="geometry">
            <mxPoint x="440" y="700" as="sourcePoint" />
            <mxPoint x="430" y="700" as="targetPoint" />
            <Array as="points" />
          </mxGeometry>
        </mxCell>
        <mxCell id="o7n648XBuUX_tCWZrf2j-3" value="&lt;font style=&quot;font-size: 17px;&quot;&gt;(1,1)&lt;/font&gt;" style="edgeLabel;html=1;align=center;verticalAlign=middle;resizable=0;points=[];fontSize=19;" parent="8CZMm7A_pFt9U8UrvjIo-3" vertex="1" connectable="0">
          <mxGeometry x="-0.6865" y="-3" relative="1" as="geometry">
            <mxPoint as="offset" />
          </mxGeometry>
        </mxCell>
        <mxCell id="8CZMm7A_pFt9U8UrvjIo-4" value="distribuira" style="shape=rhombus;perimeter=rhombusPerimeter;whiteSpace=wrap;html=1;align=center;fontSize=19;strokeWidth=2;" parent="1" vertex="1">
          <mxGeometry x="226.88" y="351" width="111.12" height="76.25" as="geometry" />
        </mxCell>
        <mxCell id="8CZMm7A_pFt9U8UrvjIo-5" value="" style="endArrow=none;html=1;rounded=0;entryX=0.632;entryY=1.009;entryDx=0;entryDy=0;fontSize=19;exitX=0.5;exitY=0;exitDx=0;exitDy=0;entryPerimeter=0;" parent="1" source="8CZMm7A_pFt9U8UrvjIo-4" target="f6Gl58Puo9PYDMiO8ByM-36" edge="1">
          <mxGeometry relative="1" as="geometry">
            <mxPoint x="292" y="377" as="sourcePoint" />
            <mxPoint x="485" y="847" as="targetPoint" />
          </mxGeometry>
        </mxCell>
        <mxCell id="8CZMm7A_pFt9U8UrvjIo-6" value="&lt;font style=&quot;font-size: 16px;&quot;&gt;(1,N)&lt;/font&gt;" style="edgeLabel;html=1;align=center;verticalAlign=middle;resizable=0;points=[];fontSize=19;" parent="8CZMm7A_pFt9U8UrvjIo-5" connectable="0" vertex="1">
          <mxGeometry x="0.7144" y="-2" relative="1" as="geometry">
            <mxPoint x="-3" y="2" as="offset" />
          </mxGeometry>
        </mxCell>
        <mxCell id="8CZMm7A_pFt9U8UrvjIo-13" style="edgeStyle=orthogonalEdgeStyle;rounded=0;orthogonalLoop=1;jettySize=auto;html=1;entryX=0;entryY=0.5;entryDx=0;entryDy=0;fontSize=19;" parent="1" source="f6Gl58Puo9PYDMiO8ByM-50" target="f6Gl58Puo9PYDMiO8ByM-53" edge="1">
          <mxGeometry relative="1" as="geometry">
            <mxPoint x="-38.75" y="1114.63" as="targetPoint" />
            <Array as="points">
              <mxPoint x="-8.75" y="947.63" />
              <mxPoint x="-8.75" y="1057.63" />
            </Array>
          </mxGeometry>
        </mxCell>
        <mxCell id="NqhwIcATW6oFcgkaRpCE-6" value="(1,N)" style="edgeLabel;html=1;align=center;verticalAlign=middle;resizable=0;points=[];fontSize=15;" parent="8CZMm7A_pFt9U8UrvjIo-13" vertex="1" connectable="0">
          <mxGeometry x="-0.4106" relative="1" as="geometry">
            <mxPoint as="offset" />
          </mxGeometry>
        </mxCell>
        <mxCell id="8CZMm7A_pFt9U8UrvjIo-18" value="organizovane" style="shape=rhombus;perimeter=rhombusPerimeter;whiteSpace=wrap;html=1;align=center;fontSize=19;strokeWidth=2;" parent="1" vertex="1">
          <mxGeometry x="104" y="754.28" width="156" height="77.72" as="geometry" />
        </mxCell>
        <mxCell id="8CZMm7A_pFt9U8UrvjIo-19" value="" style="endArrow=none;html=1;rounded=0;exitX=0.5;exitY=0;exitDx=0;exitDy=0;entryX=0;entryY=1;entryDx=0;entryDy=0;fontSize=19;" parent="1" source="f6Gl58Puo9PYDMiO8ByM-50" target="8CZMm7A_pFt9U8UrvjIo-18" edge="1">
          <mxGeometry relative="1" as="geometry">
            <mxPoint x="230" y="840" as="sourcePoint" />
            <mxPoint x="390" y="840" as="targetPoint" />
          </mxGeometry>
        </mxCell>
        <mxCell id="8CZMm7A_pFt9U8UrvjIo-22" value="(0,N)" style="edgeLabel;html=1;align=center;verticalAlign=middle;resizable=0;points=[];fontSize=19;" parent="8CZMm7A_pFt9U8UrvjIo-19" connectable="0" vertex="1">
          <mxGeometry x="-0.4908" y="-1" relative="1" as="geometry">
            <mxPoint y="-1" as="offset" />
          </mxGeometry>
        </mxCell>
        <mxCell id="8CZMm7A_pFt9U8UrvjIo-20" value="" style="endArrow=none;html=1;rounded=0;entryX=0.25;entryY=1;entryDx=0;entryDy=0;fontSize=19;" parent="1" source="8CZMm7A_pFt9U8UrvjIo-18" target="f6Gl58Puo9PYDMiO8ByM-1" edge="1">
          <mxGeometry relative="1" as="geometry">
            <mxPoint x="260" y="700" as="sourcePoint" />
            <mxPoint x="420" y="700" as="targetPoint" />
          </mxGeometry>
        </mxCell>
        <mxCell id="8CZMm7A_pFt9U8UrvjIo-21" value="(1,1)" style="edgeLabel;html=1;align=center;verticalAlign=middle;resizable=0;points=[];fontSize=19;" parent="8CZMm7A_pFt9U8UrvjIo-20" connectable="0" vertex="1">
          <mxGeometry x="0.7164" y="-2" relative="1" as="geometry">
            <mxPoint x="-13" y="7" as="offset" />
          </mxGeometry>
        </mxCell>
        <mxCell id="8CZMm7A_pFt9U8UrvjIo-23" value="" style="endArrow=none;html=1;rounded=0;exitX=1;exitY=0.5;exitDx=0;exitDy=0;entryX=0;entryY=0;entryDx=0;entryDy=0;fontSize=19;" parent="1" source="f6Gl58Puo9PYDMiO8ByM-54" target="8CZMm7A_pFt9U8UrvjIo-25" edge="1">
          <mxGeometry relative="1" as="geometry">
            <mxPoint x="1235" y="169.28" as="sourcePoint" />
            <mxPoint x="1235" y="216.28" as="targetPoint" />
          </mxGeometry>
        </mxCell>
        <mxCell id="8CZMm7A_pFt9U8UrvjIo-25" value="IS_A" style="shape=rhombus;perimeter=rhombusPerimeter;whiteSpace=wrap;html=1;align=center;fontSize=19;strokeWidth=2;" parent="1" vertex="1">
          <mxGeometry x="1265" y="254.78" width="120" height="60" as="geometry" />
        </mxCell>
        <mxCell id="8CZMm7A_pFt9U8UrvjIo-27" value="Standardni" style="whiteSpace=wrap;html=1;align=center;fontSize=19;strokeWidth=2;" parent="1" vertex="1">
          <mxGeometry x="1183" y="380.28" width="120" height="60" as="geometry" />
        </mxCell>
        <mxCell id="8CZMm7A_pFt9U8UrvjIo-28" value="VIP" style="whiteSpace=wrap;html=1;align=center;fontSize=19;strokeWidth=2;" parent="1" vertex="1">
          <mxGeometry x="1326" y="380.28" width="120" height="60" as="geometry" />
        </mxCell>
        <mxCell id="8CZMm7A_pFt9U8UrvjIo-29" value="" style="endArrow=none;html=1;rounded=0;exitX=0;exitY=1;exitDx=0;exitDy=0;entryX=0.5;entryY=0;entryDx=0;entryDy=0;fontSize=19;" parent="1" source="8CZMm7A_pFt9U8UrvjIo-25" target="8CZMm7A_pFt9U8UrvjIo-27" edge="1">
          <mxGeometry relative="1" as="geometry">
            <mxPoint x="1365" y="216.28" as="sourcePoint" />
            <mxPoint x="1525" y="216.28" as="targetPoint" />
          </mxGeometry>
        </mxCell>
        <mxCell id="8CZMm7A_pFt9U8UrvjIo-30" value="" style="endArrow=none;html=1;rounded=0;exitX=1;exitY=1;exitDx=0;exitDy=0;entryX=0.375;entryY=0;entryDx=0;entryDy=0;entryPerimeter=0;fontSize=19;" parent="1" source="8CZMm7A_pFt9U8UrvjIo-25" target="8CZMm7A_pFt9U8UrvjIo-28" edge="1">
          <mxGeometry relative="1" as="geometry">
            <mxPoint x="1386" y="295.5" as="sourcePoint" />
            <mxPoint x="1546" y="295.5" as="targetPoint" />
          </mxGeometry>
        </mxCell>
        <mxCell id="8CZMm7A_pFt9U8UrvjIo-31" value="ima" style="shape=rhombus;perimeter=rhombusPerimeter;whiteSpace=wrap;html=1;align=center;fontSize=19;strokeWidth=2;" parent="1" vertex="1">
          <mxGeometry x="1402" y="487.28" width="120" height="60" as="geometry" />
        </mxCell>
        <mxCell id="8CZMm7A_pFt9U8UrvjIo-32" value="" style="endArrow=none;html=1;rounded=0;exitX=0.45;exitY=1.006;exitDx=0;exitDy=0;entryX=0;entryY=0;entryDx=0;entryDy=0;fontSize=19;exitPerimeter=0;" parent="1" source="8CZMm7A_pFt9U8UrvjIo-28" target="8CZMm7A_pFt9U8UrvjIo-31" edge="1">
          <mxGeometry relative="1" as="geometry">
            <mxPoint x="1556" y="452.28" as="sourcePoint" />
            <mxPoint x="1716" y="452.28" as="targetPoint" />
          </mxGeometry>
        </mxCell>
        <mxCell id="8CZMm7A_pFt9U8UrvjIo-52" value="(1,N)" style="edgeLabel;html=1;align=center;verticalAlign=middle;resizable=0;points=[];fontSize=19;" parent="8CZMm7A_pFt9U8UrvjIo-32" connectable="0" vertex="1">
          <mxGeometry x="-0.5984" y="-1" relative="1" as="geometry">
            <mxPoint x="6" y="5" as="offset" />
          </mxGeometry>
        </mxCell>
        <mxCell id="8CZMm7A_pFt9U8UrvjIo-33" value="" style="endArrow=none;html=1;rounded=0;exitX=0.5;exitY=1;exitDx=0;exitDy=0;entryX=0.376;entryY=0.031;entryDx=0;entryDy=0;fontSize=19;entryPerimeter=0;" parent="1" source="8CZMm7A_pFt9U8UrvjIo-31" target="f6Gl58Puo9PYDMiO8ByM-65" edge="1">
          <mxGeometry relative="1" as="geometry">
            <mxPoint x="1468.7600000000002" y="590.0099999999995" as="sourcePoint" />
            <mxPoint x="1748" y="463.25" as="targetPoint" />
          </mxGeometry>
        </mxCell>
        <mxCell id="8CZMm7A_pFt9U8UrvjIo-53" value="(1,1)" style="edgeLabel;html=1;align=center;verticalAlign=middle;resizable=0;points=[];fontSize=19;" parent="8CZMm7A_pFt9U8UrvjIo-33" connectable="0" vertex="1">
          <mxGeometry x="0.3868" y="3" relative="1" as="geometry">
            <mxPoint x="-16" y="-1" as="offset" />
          </mxGeometry>
        </mxCell>
        <mxCell id="8CZMm7A_pFt9U8UrvjIo-40" value="&lt;u&gt;ID&lt;/u&gt;" style="ellipse;whiteSpace=wrap;html=1;fontSize=19;strokeWidth=2;" parent="1" vertex="1">
          <mxGeometry x="1522" y="711.75" width="110" height="40" as="geometry" />
        </mxCell>
        <mxCell id="8CZMm7A_pFt9U8UrvjIo-41" value="" style="endArrow=none;html=1;rounded=0;exitX=0.275;exitY=0.055;exitDx=0;exitDy=0;entryX=0.88;entryY=1.033;entryDx=0;entryDy=0;exitPerimeter=0;fontSize=19;entryPerimeter=0;" parent="1" source="8CZMm7A_pFt9U8UrvjIo-40" target="f6Gl58Puo9PYDMiO8ByM-65" edge="1">
          <mxGeometry relative="1" as="geometry">
            <mxPoint x="1670" y="679.25" as="sourcePoint" />
            <mxPoint x="1783" y="709.25" as="targetPoint" />
          </mxGeometry>
        </mxCell>
        <mxCell id="8CZMm7A_pFt9U8UrvjIo-42" value="izdaje" style="shape=rhombus;perimeter=rhombusPerimeter;whiteSpace=wrap;html=1;align=center;fontSize=19;strokeWidth=2;" parent="1" vertex="1">
          <mxGeometry x="1145" y="819.75" width="120" height="60" as="geometry" />
        </mxCell>
        <mxCell id="8CZMm7A_pFt9U8UrvjIo-43" value="" style="endArrow=none;html=1;rounded=0;exitX=0.5;exitY=0;exitDx=0;exitDy=0;entryX=1;entryY=1;entryDx=0;entryDy=0;fontSize=19;" parent="1" source="f6Gl58Puo9PYDMiO8ByM-82" target="8CZMm7A_pFt9U8UrvjIo-42" edge="1">
          <mxGeometry relative="1" as="geometry">
            <mxPoint x="905.5" y="1048.5" as="sourcePoint" />
            <mxPoint x="1065.5" y="1048.5" as="targetPoint" />
          </mxGeometry>
        </mxCell>
        <mxCell id="8CZMm7A_pFt9U8UrvjIo-63" value="(1,N)" style="edgeLabel;html=1;align=center;verticalAlign=middle;resizable=0;points=[];fontSize=19;" parent="8CZMm7A_pFt9U8UrvjIo-43" connectable="0" vertex="1">
          <mxGeometry x="-0.522" y="-3" relative="1" as="geometry">
            <mxPoint x="1" y="-1" as="offset" />
          </mxGeometry>
        </mxCell>
        <mxCell id="8CZMm7A_pFt9U8UrvjIo-44" value="" style="endArrow=none;html=1;rounded=0;exitX=0;exitY=0;exitDx=0;exitDy=0;entryX=0.5;entryY=1;entryDx=0;entryDy=0;fontSize=19;" parent="1" source="8CZMm7A_pFt9U8UrvjIo-42" target="f6Gl58Puo9PYDMiO8ByM-76" edge="1">
          <mxGeometry relative="1" as="geometry">
            <mxPoint x="795" y="712" as="sourcePoint" />
            <mxPoint x="888.2000000000007" y="1013.9800000000005" as="targetPoint" />
            <Array as="points" />
          </mxGeometry>
        </mxCell>
        <mxCell id="8CZMm7A_pFt9U8UrvjIo-98" value="(1,1" style="edgeLabel;html=1;align=center;verticalAlign=middle;resizable=0;points=[];fontSize=19;" parent="8CZMm7A_pFt9U8UrvjIo-44" connectable="0" vertex="1">
          <mxGeometry x="0.841" y="-2" relative="1" as="geometry">
            <mxPoint y="1" as="offset" />
          </mxGeometry>
        </mxCell>
        <mxCell id="8CZMm7A_pFt9U8UrvjIo-45" value="količ&lt;span style=&quot;background-color: transparent; color: light-dark(rgb(0, 0, 0), rgb(255, 255, 255));&quot;&gt;ina&lt;/span&gt;" style="ellipse;whiteSpace=wrap;html=1;fontSize=19;strokeWidth=2;" parent="1" vertex="1">
          <mxGeometry x="497" y="621" width="130" height="40" as="geometry" />
        </mxCell>
        <mxCell id="8CZMm7A_pFt9U8UrvjIo-46" value="popust" style="ellipse;whiteSpace=wrap;html=1;fontSize=19;strokeWidth=2;" parent="1" vertex="1">
          <mxGeometry x="638" y="653.2" width="120" height="40" as="geometry" />
        </mxCell>
        <mxCell id="8CZMm7A_pFt9U8UrvjIo-47" value="" style="endArrow=none;html=1;rounded=0;exitX=1;exitY=0;exitDx=0;exitDy=0;entryX=0.17;entryY=1.043;entryDx=0;entryDy=0;fontSize=19;entryPerimeter=0;" parent="1" source="8CZMm7A_pFt9U8UrvjIo-45" target="8CZMm7A_pFt9U8UrvjIo-80" edge="1">
          <mxGeometry relative="1" as="geometry">
            <mxPoint x="985" y="869.5" as="sourcePoint" />
            <mxPoint x="690.9999999999995" y="767.5" as="targetPoint" />
          </mxGeometry>
        </mxCell>
        <mxCell id="8CZMm7A_pFt9U8UrvjIo-48" value="" style="endArrow=none;html=1;rounded=0;exitX=0.342;exitY=0.008;exitDx=0;exitDy=0;entryX=0.607;entryY=0.996;entryDx=0;entryDy=0;exitPerimeter=0;fontSize=19;entryPerimeter=0;" parent="1" source="8CZMm7A_pFt9U8UrvjIo-46" target="8CZMm7A_pFt9U8UrvjIo-80" edge="1">
          <mxGeometry relative="1" as="geometry">
            <mxPoint x="995" y="879.5" as="sourcePoint" />
            <mxPoint x="720.9999999999995" y="782.5" as="targetPoint" />
          </mxGeometry>
        </mxCell>
        <mxCell id="8CZMm7A_pFt9U8UrvjIo-55" value="" style="endArrow=none;html=1;rounded=0;entryX=0;entryY=0.5;entryDx=0;entryDy=0;exitX=1;exitY=0.5;exitDx=0;exitDy=0;fontSize=19;" parent="1" source="8CZMm7A_pFt9U8UrvjIo-81" target="f6Gl58Puo9PYDMiO8ByM-76" edge="1">
          <mxGeometry relative="1" as="geometry">
            <mxPoint x="832" y="637" as="sourcePoint" />
            <mxPoint x="1105" y="1170" as="targetPoint" />
          </mxGeometry>
        </mxCell>
        <mxCell id="8CZMm7A_pFt9U8UrvjIo-59" value="(1,N)" style="edgeLabel;html=1;align=center;verticalAlign=middle;resizable=0;points=[];fontSize=19;" parent="8CZMm7A_pFt9U8UrvjIo-55" connectable="0" vertex="1">
          <mxGeometry x="0.7812" y="-2" relative="1" as="geometry">
            <mxPoint x="-20" y="1" as="offset" />
          </mxGeometry>
        </mxCell>
        <mxCell id="8CZMm7A_pFt9U8UrvjIo-65" value="" style="endArrow=none;html=1;rounded=0;entryX=0.401;entryY=1.018;entryDx=0;entryDy=0;entryPerimeter=0;exitX=1;exitY=0;exitDx=0;exitDy=0;fontSize=19;" parent="1" source="8CZMm7A_pFt9U8UrvjIo-102" target="f6Gl58Puo9PYDMiO8ByM-54" edge="1">
          <mxGeometry relative="1" as="geometry">
            <mxPoint x="1014" y="715" as="sourcePoint" />
            <mxPoint x="1031" y="429" as="targetPoint" />
          </mxGeometry>
        </mxCell>
        <mxCell id="8CZMm7A_pFt9U8UrvjIo-70" value="(1,N)" style="edgeLabel;html=1;align=center;verticalAlign=middle;resizable=0;points=[];fontSize=19;" parent="8CZMm7A_pFt9U8UrvjIo-65" connectable="0" vertex="1">
          <mxGeometry x="0.8076" y="-4" relative="1" as="geometry">
            <mxPoint x="-14" y="17" as="offset" />
          </mxGeometry>
        </mxCell>
        <mxCell id="8CZMm7A_pFt9U8UrvjIo-66" value="" style="endArrow=none;html=1;rounded=0;exitX=1;exitY=0.5;exitDx=0;exitDy=0;entryX=0;entryY=0.5;entryDx=0;entryDy=0;fontSize=19;" parent="1" source="f6Gl58Puo9PYDMiO8ByM-1" target="8CZMm7A_pFt9U8UrvjIo-80" edge="1">
          <mxGeometry relative="1" as="geometry">
            <mxPoint x="468" y="598" as="sourcePoint" />
            <mxPoint x="709.0000000000005" y="500" as="targetPoint" />
          </mxGeometry>
        </mxCell>
        <mxCell id="8CZMm7A_pFt9U8UrvjIo-69" value="(1,N)" style="edgeLabel;html=1;align=center;verticalAlign=middle;resizable=0;points=[];fontSize=19;" parent="8CZMm7A_pFt9U8UrvjIo-66" connectable="0" vertex="1">
          <mxGeometry x="-0.8052" y="-4" relative="1" as="geometry">
            <mxPoint as="offset" />
          </mxGeometry>
        </mxCell>
        <mxCell id="8CZMm7A_pFt9U8UrvjIo-105" value="(1,1)" style="edgeLabel;html=1;align=center;verticalAlign=middle;resizable=0;points=[];fontSize=19;" parent="8CZMm7A_pFt9U8UrvjIo-66" connectable="0" vertex="1">
          <mxGeometry x="0.7557" relative="1" as="geometry">
            <mxPoint as="offset" />
          </mxGeometry>
        </mxCell>
        <mxCell id="8CZMm7A_pFt9U8UrvjIo-71" value="ID" style="ellipse;whiteSpace=wrap;html=1;align=center;fontStyle=4;fontSize=19;strokeWidth=2;" parent="1" vertex="1">
          <mxGeometry x="1469" y="1027.63" width="100" height="40" as="geometry" />
        </mxCell>
        <mxCell id="8CZMm7A_pFt9U8UrvjIo-72" value="" style="endArrow=none;html=1;rounded=0;exitX=0;exitY=0;exitDx=0;exitDy=0;entryX=1;entryY=0.5;entryDx=0;entryDy=0;fontSize=19;" parent="1" source="8CZMm7A_pFt9U8UrvjIo-71" target="f6Gl58Puo9PYDMiO8ByM-82" edge="1">
          <mxGeometry relative="1" as="geometry">
            <mxPoint x="1350.5" y="1195.1799999999998" as="sourcePoint" />
            <mxPoint x="1515.5" y="1110.1799999999998" as="targetPoint" />
          </mxGeometry>
        </mxCell>
        <mxCell id="8CZMm7A_pFt9U8UrvjIo-73" value="ID" style="ellipse;whiteSpace=wrap;html=1;align=center;fontStyle=4;fontSize=19;strokeWidth=2;" parent="1" vertex="1">
          <mxGeometry x="1203" y="613.2" width="100" height="40" as="geometry" />
        </mxCell>
        <mxCell id="8CZMm7A_pFt9U8UrvjIo-74" value="" style="endArrow=none;html=1;rounded=0;exitX=0;exitY=0.5;exitDx=0;exitDy=0;entryX=1;entryY=0.75;entryDx=0;entryDy=0;fontSize=19;" parent="1" source="8CZMm7A_pFt9U8UrvjIo-73" target="f6Gl58Puo9PYDMiO8ByM-76" edge="1">
          <mxGeometry relative="1" as="geometry">
            <mxPoint x="1487" y="889.2" as="sourcePoint" />
            <mxPoint x="1534" y="938.2" as="targetPoint" />
          </mxGeometry>
        </mxCell>
        <mxCell id="8CZMm7A_pFt9U8UrvjIo-80" value="stavka" style="shape=associativeEntity;whiteSpace=wrap;html=1;align=center;fontSize=19;strokeWidth=2;" parent="1" vertex="1">
          <mxGeometry x="602" y="538.5" width="140" height="60" as="geometry" />
        </mxCell>
        <mxCell id="8CZMm7A_pFt9U8UrvjIo-81" value="ima" style="shape=rhombus;perimeter=rhombusPerimeter;whiteSpace=wrap;html=1;align=center;fontSize=19;strokeWidth=2;" parent="1" vertex="1">
          <mxGeometry x="822" y="554.75" width="120" height="60" as="geometry" />
        </mxCell>
        <mxCell id="8CZMm7A_pFt9U8UrvjIo-83" value="" style="endArrow=none;html=1;rounded=0;exitX=1;exitY=0.5;exitDx=0;exitDy=0;entryX=0;entryY=0.5;entryDx=0;entryDy=0;fontSize=19;" parent="1" source="8CZMm7A_pFt9U8UrvjIo-80" target="8CZMm7A_pFt9U8UrvjIo-81" edge="1">
          <mxGeometry relative="1" as="geometry">
            <mxPoint x="783" y="598.5" as="sourcePoint" />
            <mxPoint x="943" y="598.5" as="targetPoint" />
          </mxGeometry>
        </mxCell>
        <mxCell id="8CZMm7A_pFt9U8UrvjIo-85" value="(1,1)" style="edgeLabel;html=1;align=center;verticalAlign=middle;resizable=0;points=[];fontSize=19;" parent="8CZMm7A_pFt9U8UrvjIo-83" connectable="0" vertex="1">
          <mxGeometry x="-0.5242" relative="1" as="geometry">
            <mxPoint as="offset" />
          </mxGeometry>
        </mxCell>
        <mxCell id="8CZMm7A_pFt9U8UrvjIo-93" value="datum" style="ellipse;whiteSpace=wrap;html=1;align=center;fontStyle=0;fontSize=19;strokeWidth=2;" parent="1" vertex="1">
          <mxGeometry x="1203" y="658.2" width="100" height="40" as="geometry" />
        </mxCell>
        <mxCell id="8CZMm7A_pFt9U8UrvjIo-94" value="" style="endArrow=none;html=1;rounded=0;exitX=0;exitY=0.5;exitDx=0;exitDy=0;entryX=1;entryY=1;entryDx=0;entryDy=0;fontSize=19;" parent="1" source="8CZMm7A_pFt9U8UrvjIo-93" target="f6Gl58Puo9PYDMiO8ByM-76" edge="1">
          <mxGeometry relative="1" as="geometry">
            <mxPoint x="1499" y="928.2" as="sourcePoint" />
            <mxPoint x="1255" y="714.2" as="targetPoint" />
          </mxGeometry>
        </mxCell>
        <mxCell id="8CZMm7A_pFt9U8UrvjIo-95" value="ukupna_cena" style="ellipse;whiteSpace=wrap;html=1;align=center;fontStyle=0;fontSize=19;strokeWidth=2;" parent="1" vertex="1">
          <mxGeometry x="1183" y="564.75" width="138" height="40" as="geometry" />
        </mxCell>
        <mxCell id="8CZMm7A_pFt9U8UrvjIo-96" value="" style="endArrow=none;html=1;rounded=0;exitX=0;exitY=0.5;exitDx=0;exitDy=0;entryX=1;entryY=0.25;entryDx=0;entryDy=0;fontSize=19;" parent="1" source="8CZMm7A_pFt9U8UrvjIo-95" target="f6Gl58Puo9PYDMiO8ByM-76" edge="1">
          <mxGeometry relative="1" as="geometry">
            <mxPoint x="1473" y="810.7" as="sourcePoint" />
            <mxPoint x="1229" y="596.7" as="targetPoint" />
          </mxGeometry>
        </mxCell>
        <mxCell id="8CZMm7A_pFt9U8UrvjIo-100" value="" style="endArrow=none;html=1;rounded=0;exitX=1;exitY=0;exitDx=0;exitDy=0;entryX=0.25;entryY=1;entryDx=0;entryDy=0;fontSize=19;" parent="1" source="TrnsY2ASUccJXAwrK36Y-1" target="f6Gl58Puo9PYDMiO8ByM-76" edge="1">
          <mxGeometry relative="1" as="geometry">
            <mxPoint x="844.5" y="798" as="sourcePoint" />
            <mxPoint x="1008" y="572.5" as="targetPoint" />
          </mxGeometry>
        </mxCell>
        <mxCell id="vFuG6RKRpNYYY5oAILym-2" value="(1,1)" style="edgeLabel;html=1;align=center;verticalAlign=middle;resizable=0;points=[];fontSize=19;" parent="8CZMm7A_pFt9U8UrvjIo-100" vertex="1" connectable="0">
          <mxGeometry x="0.4652" y="2" relative="1" as="geometry">
            <mxPoint x="-10" y="2" as="offset" />
          </mxGeometry>
        </mxCell>
        <mxCell id="8CZMm7A_pFt9U8UrvjIo-102" value="izdat" style="shape=rhombus;perimeter=rhombusPerimeter;whiteSpace=wrap;html=1;align=center;fontSize=19;strokeWidth=2;" parent="1" vertex="1">
          <mxGeometry x="1027" y="396.5" width="120" height="60" as="geometry" />
        </mxCell>
        <mxCell id="8CZMm7A_pFt9U8UrvjIo-104" value="" style="endArrow=none;html=1;rounded=0;exitX=0.5;exitY=1;exitDx=0;exitDy=0;entryX=0.5;entryY=0;entryDx=0;entryDy=0;fontSize=19;" parent="1" source="8CZMm7A_pFt9U8UrvjIo-102" target="f6Gl58Puo9PYDMiO8ByM-76" edge="1">
          <mxGeometry relative="1" as="geometry">
            <mxPoint x="1001" y="624" as="sourcePoint" />
            <mxPoint x="1161" y="624" as="targetPoint" />
          </mxGeometry>
        </mxCell>
        <mxCell id="vFuG6RKRpNYYY5oAILym-3" value="&lt;span style=&quot;font-size: 15px;&quot;&gt;(1,1)&lt;/span&gt;" style="edgeLabel;html=1;align=center;verticalAlign=middle;resizable=0;points=[];fontSize=19;" parent="8CZMm7A_pFt9U8UrvjIo-104" vertex="1" connectable="0">
          <mxGeometry x="0.6764" y="-1" relative="1" as="geometry">
            <mxPoint as="offset" />
          </mxGeometry>
        </mxCell>
        <mxCell id="8CZMm7A_pFt9U8UrvjIo-106" value="cena" style="ellipse;whiteSpace=wrap;html=1;align=center;fontSize=19;strokeWidth=2;" parent="1" vertex="1">
          <mxGeometry x="413" y="520" width="100" height="40" as="geometry" />
        </mxCell>
        <mxCell id="8CZMm7A_pFt9U8UrvjIo-107" value="" style="endArrow=none;html=1;rounded=0;exitX=1;exitY=0;exitDx=0;exitDy=0;entryX=0;entryY=1;entryDx=0;entryDy=0;fontSize=19;" parent="1" source="f6Gl58Puo9PYDMiO8ByM-1" target="8CZMm7A_pFt9U8UrvjIo-106" edge="1">
          <mxGeometry relative="1" as="geometry">
            <mxPoint x="442" y="663" as="sourcePoint" />
            <mxPoint x="602" y="663" as="targetPoint" />
          </mxGeometry>
        </mxCell>
        <mxCell id="8CZMm7A_pFt9U8UrvjIo-108" value="&lt;div&gt;autor (id,ime,prezime) // id NOT NULL&lt;/div&gt;&lt;div&gt;izdavac (id,ime,adresa,godina_osnivanja) // id NOT NULL, ime NOT NULL&lt;/div&gt;&lt;div&gt;distributer (id,ime,adresa,grad,broj_telefona) // id NOT NULL, broj_telefona UNIQUE&lt;/div&gt;&lt;div&gt;kategorija (id,naziv,roditelj_id) // id NOT NULL, roditelj_id NULL&lt;/div&gt;&lt;div&gt;&lt;br&gt;&lt;/div&gt;&lt;div&gt;knjiga (id,ISBN,naslov,broj_stranica,cijena,distributer_id,kategorija_id) // id NOT NULL, ISBN NOT NULL UNIQUE, distributer_id NOT NULL, kategorija_id NOT NULL&lt;/div&gt;&lt;div&gt;&lt;br&gt;&lt;/div&gt;&lt;div&gt;autor_knjiga (autor_id,knjiga_id) // autor_id NOT NULL, knjiga_id NOT NULL&lt;/div&gt;&lt;div&gt;izdavac_knjiga (izadavac_id,knjiga_id) // izadavac_id NOT NULL, knjiga_id NOT NULL&lt;/div&gt;&lt;div&gt;&lt;br&gt;&lt;/div&gt;&lt;div&gt;vrsta_kupca (id, naziv) id NOT NULL, naziv ima vrednosti: Standardni ili VIP&amp;nbsp;&lt;/div&gt;&lt;div&gt;kupac (id,ime,prezime,broj_telefona,broj_transakcija,vrsta_kupca) // id NOT NULL, broj_telefona NOT NULL UNIQUE , vrsta_kupca NOT NULL&lt;/div&gt;&lt;div&gt;vip_kartica (id,datum_izdavanja,popust,kupac_id) // id NOT NULL, kupac_id NOT NULL UNIQUE&lt;/div&gt;&lt;div&gt;&lt;br&gt;&lt;/div&gt;&lt;div&gt;vrsta_kupovine (id,naziv) // id NOT NULL naziv ima vrednosti: Prodavnica ili Online,&lt;/div&gt;&lt;div&gt;prodavac (id,ime,prezime) //id NOT NULL&lt;/div&gt;&lt;div&gt;racun (id,datum,ukupna_cijena,vrsta_kupovine_id,prodavac_id,kupac_id) // id NOT NULL, prodavac_id NOT NULL, vrsta_kupovine_id NOT NULL&lt;/div&gt;&lt;div&gt;&lt;br&gt;&lt;/div&gt;&lt;div&gt;stavka (kolicina,popust,racun_id,knjiga_id) // racun_id NOT NULL, knjiga_id NOT NULL&lt;/div&gt;" style="text;html=1;align=left;verticalAlign=middle;whiteSpace=wrap;rounded=0;fontSize=15;" parent="1" vertex="1">
          <mxGeometry x="-1027" y="311.5" width="793" height="520.5" as="geometry" />
        </mxCell>
        <mxCell id="TrnsY2ASUccJXAwrK36Y-1" value="ima" style="shape=rhombus;perimeter=rhombusPerimeter;whiteSpace=wrap;html=1;align=center;fontSize=19;strokeWidth=2;" parent="1" vertex="1">
          <mxGeometry x="806" y="798.75" width="120" height="60" as="geometry" />
        </mxCell>
        <mxCell id="TrnsY2ASUccJXAwrK36Y-2" value="" style="endArrow=none;html=1;rounded=0;entryX=0.5;entryY=1;entryDx=0;entryDy=0;exitX=0.58;exitY=0.025;exitDx=0;exitDy=0;exitPerimeter=0;fontSize=19;" parent="1" source="TrnsY2ASUccJXAwrK36Y-3" target="TrnsY2ASUccJXAwrK36Y-1" edge="1">
          <mxGeometry relative="1" as="geometry">
            <mxPoint x="780" y="897" as="sourcePoint" />
            <mxPoint x="820" y="883.5" as="targetPoint" />
          </mxGeometry>
        </mxCell>
        <mxCell id="vFuG6RKRpNYYY5oAILym-1" value="(1,N)" style="edgeLabel;html=1;align=center;verticalAlign=middle;resizable=0;points=[];fontSize=19;" parent="TrnsY2ASUccJXAwrK36Y-2" vertex="1" connectable="0">
          <mxGeometry x="-0.4451" relative="1" as="geometry">
            <mxPoint as="offset" />
          </mxGeometry>
        </mxCell>
        <mxCell id="TrnsY2ASUccJXAwrK36Y-3" value="Vrsta_kupovine" style="whiteSpace=wrap;html=1;align=center;fontSize=19;strokeWidth=2;" parent="1" vertex="1">
          <mxGeometry x="812" y="995" width="130" height="55" as="geometry" />
        </mxCell>
        <mxCell id="TrnsY2ASUccJXAwrK36Y-4" value="naziv" style="ellipse;whiteSpace=wrap;html=1;align=center;fontSize=19;strokeWidth=2;" parent="1" vertex="1">
          <mxGeometry x="668" y="977" width="100" height="40" as="geometry" />
        </mxCell>
        <mxCell id="TrnsY2ASUccJXAwrK36Y-5" value="" style="endArrow=none;html=1;rounded=0;exitX=0;exitY=0.5;exitDx=0;exitDy=0;entryX=1;entryY=1;entryDx=0;entryDy=0;fontSize=19;" parent="1" source="TrnsY2ASUccJXAwrK36Y-3" target="TrnsY2ASUccJXAwrK36Y-4" edge="1">
          <mxGeometry relative="1" as="geometry">
            <mxPoint x="936" y="1147.91" as="sourcePoint" />
            <mxPoint x="1096" y="1147.91" as="targetPoint" />
            <Array as="points" />
          </mxGeometry>
        </mxCell>
        <mxCell id="LZrvzb4El88QJyoIHWKF-5" value="Knjiga" style="rounded=0;whiteSpace=wrap;html=1;fontSize=20;" parent="1" vertex="1">
          <mxGeometry x="2464" y="411" width="120" height="57" as="geometry" />
        </mxCell>
        <mxCell id="LZrvzb4El88QJyoIHWKF-6" value="broj_stranica" style="ellipse;whiteSpace=wrap;html=1;fontSize=20;" parent="1" vertex="1">
          <mxGeometry x="2274" y="460" width="117" height="41" as="geometry" />
        </mxCell>
        <mxCell id="LZrvzb4El88QJyoIHWKF-7" value="naziv" style="ellipse;whiteSpace=wrap;html=1;fontSize=20;" parent="1" vertex="1">
          <mxGeometry x="2385.5" y="329.5" width="100" height="40" as="geometry" />
        </mxCell>
        <mxCell id="LZrvzb4El88QJyoIHWKF-8" value="" style="endArrow=none;html=1;rounded=0;exitX=0.808;exitY=0.927;exitDx=0;exitDy=0;entryX=0.161;entryY=-0.041;entryDx=0;entryDy=0;exitPerimeter=0;fontSize=20;entryPerimeter=0;" parent="1" source="LZrvzb4El88QJyoIHWKF-7" target="LZrvzb4El88QJyoIHWKF-5" edge="1">
          <mxGeometry relative="1" as="geometry">
            <mxPoint x="2424" y="461" as="sourcePoint" />
            <mxPoint x="2474" y="451" as="targetPoint" />
          </mxGeometry>
        </mxCell>
        <mxCell id="LZrvzb4El88QJyoIHWKF-9" value="" style="endArrow=none;html=1;rounded=0;exitX=1;exitY=0.5;exitDx=0;exitDy=0;entryX=0;entryY=0.75;entryDx=0;entryDy=0;fontSize=20;" parent="1" source="LZrvzb4El88QJyoIHWKF-6" target="LZrvzb4El88QJyoIHWKF-5" edge="1">
          <mxGeometry relative="1" as="geometry">
            <mxPoint x="2476" y="416" as="sourcePoint" />
            <mxPoint x="2509" y="439" as="targetPoint" />
          </mxGeometry>
        </mxCell>
        <mxCell id="LZrvzb4El88QJyoIHWKF-10" value="cijena" style="ellipse;whiteSpace=wrap;html=1;align=center;fontSize=20;" parent="1" vertex="1">
          <mxGeometry x="2490" y="331.5" width="94" height="38" as="geometry" />
        </mxCell>
        <mxCell id="LZrvzb4El88QJyoIHWKF-11" value="" style="endArrow=none;html=1;rounded=0;exitX=0.383;exitY=0;exitDx=0;exitDy=0;entryX=0.394;entryY=0.961;entryDx=0;entryDy=0;fontSize=20;entryPerimeter=0;exitPerimeter=0;" parent="1" source="LZrvzb4El88QJyoIHWKF-5" target="LZrvzb4El88QJyoIHWKF-10" edge="1">
          <mxGeometry relative="1" as="geometry">
            <mxPoint x="2626" y="494" as="sourcePoint" />
            <mxPoint x="2786" y="494" as="targetPoint" />
          </mxGeometry>
        </mxCell>
        <mxCell id="LZrvzb4El88QJyoIHWKF-19" value="godina_izdanja" style="ellipse;whiteSpace=wrap;html=1;align=center;fontSize=20;" parent="1" vertex="1">
          <mxGeometry x="2616" y="442" width="153" height="39" as="geometry" />
        </mxCell>
        <mxCell id="LZrvzb4El88QJyoIHWKF-20" value="" style="endArrow=none;html=1;rounded=0;exitX=1;exitY=0.5;exitDx=0;exitDy=0;entryX=0;entryY=0.5;entryDx=0;entryDy=0;fontSize=20;" parent="1" source="LZrvzb4El88QJyoIHWKF-5" target="LZrvzb4El88QJyoIHWKF-19" edge="1">
          <mxGeometry relative="1" as="geometry">
            <mxPoint x="2600" y="480.5" as="sourcePoint" />
            <mxPoint x="2802" y="563.5" as="targetPoint" />
          </mxGeometry>
        </mxCell>
        <mxCell id="LZrvzb4El88QJyoIHWKF-21" value="Izdavač" style="rounded=0;whiteSpace=wrap;html=1;fontSize=20;" parent="1" vertex="1">
          <mxGeometry x="2999" y="331.5" width="120" height="57" as="geometry" />
        </mxCell>
        <mxCell id="LZrvzb4El88QJyoIHWKF-23" value="naziv" style="ellipse;whiteSpace=wrap;html=1;fontSize=20;" parent="1" vertex="1">
          <mxGeometry x="2899" y="277" width="100" height="40" as="geometry" />
        </mxCell>
        <mxCell id="LZrvzb4El88QJyoIHWKF-24" value="" style="endArrow=none;html=1;rounded=0;exitX=0.808;exitY=0.927;exitDx=0;exitDy=0;entryX=0.125;entryY=-0.033;entryDx=0;entryDy=0;exitPerimeter=0;entryPerimeter=0;fontSize=20;" parent="1" source="LZrvzb4El88QJyoIHWKF-23" target="LZrvzb4El88QJyoIHWKF-21" edge="1">
          <mxGeometry relative="1" as="geometry">
            <mxPoint x="2959" y="381.5" as="sourcePoint" />
            <mxPoint x="3009" y="371.5" as="targetPoint" />
          </mxGeometry>
        </mxCell>
        <mxCell id="LZrvzb4El88QJyoIHWKF-36" value="Autor" style="rounded=0;whiteSpace=wrap;html=1;fontSize=20;" parent="1" vertex="1">
          <mxGeometry x="2231" y="805.1800000000001" width="120" height="57" as="geometry" />
        </mxCell>
        <mxCell id="LZrvzb4El88QJyoIHWKF-37" value="ime" style="ellipse;whiteSpace=wrap;html=1;fontSize=20;" parent="1" vertex="1">
          <mxGeometry x="2131" y="750.6800000000001" width="100" height="40" as="geometry" />
        </mxCell>
        <mxCell id="LZrvzb4El88QJyoIHWKF-38" value="" style="endArrow=none;html=1;rounded=0;exitX=0.808;exitY=0.927;exitDx=0;exitDy=0;entryX=0.125;entryY=-0.033;entryDx=0;entryDy=0;exitPerimeter=0;entryPerimeter=0;fontSize=20;" parent="1" source="LZrvzb4El88QJyoIHWKF-37" target="LZrvzb4El88QJyoIHWKF-36" edge="1">
          <mxGeometry relative="1" as="geometry">
            <mxPoint x="2191" y="855.1800000000001" as="sourcePoint" />
            <mxPoint x="2241" y="845.1800000000001" as="targetPoint" />
          </mxGeometry>
        </mxCell>
        <mxCell id="LZrvzb4El88QJyoIHWKF-39" value="datum_rođenja" style="ellipse;whiteSpace=wrap;html=1;align=center;fontSize=20;" parent="1" vertex="1">
          <mxGeometry x="2367" y="746.1800000000001" width="137" height="35.5" as="geometry" />
        </mxCell>
        <mxCell id="LZrvzb4El88QJyoIHWKF-40" value="" style="endArrow=none;html=1;rounded=0;exitX=1;exitY=0;exitDx=0;exitDy=0;entryX=0;entryY=1;entryDx=0;entryDy=0;fontSize=20;" parent="1" source="LZrvzb4El88QJyoIHWKF-36" target="LZrvzb4El88QJyoIHWKF-39" edge="1">
          <mxGeometry relative="1" as="geometry">
            <mxPoint x="2393" y="888.1800000000001" as="sourcePoint" />
            <mxPoint x="2553" y="888.1800000000001" as="targetPoint" />
          </mxGeometry>
        </mxCell>
        <mxCell id="LZrvzb4El88QJyoIHWKF-41" value="prezime" style="ellipse;whiteSpace=wrap;html=1;fontSize=20;" parent="1" vertex="1">
          <mxGeometry x="2066" y="805.1800000000001" width="100" height="40" as="geometry" />
        </mxCell>
        <mxCell id="LZrvzb4El88QJyoIHWKF-42" value="" style="endArrow=none;html=1;rounded=0;exitX=1;exitY=0.5;exitDx=0;exitDy=0;entryX=0;entryY=0.5;entryDx=0;entryDy=0;fontSize=20;" parent="1" source="LZrvzb4El88QJyoIHWKF-41" target="LZrvzb4El88QJyoIHWKF-36" edge="1">
          <mxGeometry relative="1" as="geometry">
            <mxPoint x="2262" y="810.1800000000001" as="sourcePoint" />
            <mxPoint x="2317" y="758.1800000000001" as="targetPoint" />
          </mxGeometry>
        </mxCell>
        <mxCell id="LZrvzb4El88QJyoIHWKF-45" value="Narudžba" style="rounded=0;whiteSpace=wrap;html=1;fontSize=20;" parent="1" vertex="1">
          <mxGeometry x="2938" y="608.5" width="120" height="57" as="geometry" />
        </mxCell>
        <mxCell id="LZrvzb4El88QJyoIHWKF-48" value="datum_narudžbe" style="ellipse;whiteSpace=wrap;html=1;align=center;fontSize=20;" parent="1" vertex="1">
          <mxGeometry x="2999" y="474.5" width="154" height="51" as="geometry" />
        </mxCell>
        <mxCell id="LZrvzb4El88QJyoIHWKF-49" value="" style="endArrow=none;html=1;rounded=0;exitX=0.5;exitY=0;exitDx=0;exitDy=0;entryX=0;entryY=1;entryDx=0;entryDy=0;fontSize=20;" parent="1" source="LZrvzb4El88QJyoIHWKF-45" target="LZrvzb4El88QJyoIHWKF-48" edge="1">
          <mxGeometry relative="1" as="geometry">
            <mxPoint x="3164" y="732.82" as="sourcePoint" />
            <mxPoint x="3324" y="732.82" as="targetPoint" />
          </mxGeometry>
        </mxCell>
        <mxCell id="LZrvzb4El88QJyoIHWKF-54" value="ukupna_cijena" style="ellipse;whiteSpace=wrap;html=1;align=center;fontSize=20;" parent="1" vertex="1">
          <mxGeometry x="3164" y="611" width="127" height="39" as="geometry" />
        </mxCell>
        <mxCell id="LZrvzb4El88QJyoIHWKF-55" value="" style="endArrow=none;html=1;rounded=0;exitX=1;exitY=0.5;exitDx=0;exitDy=0;entryX=0;entryY=0.5;entryDx=0;entryDy=0;fontSize=20;" parent="1" source="LZrvzb4El88QJyoIHWKF-45" target="LZrvzb4El88QJyoIHWKF-54" edge="1">
          <mxGeometry relative="1" as="geometry">
            <mxPoint x="3071" y="744.82" as="sourcePoint" />
            <mxPoint x="3289" y="869.32" as="targetPoint" />
          </mxGeometry>
        </mxCell>
        <mxCell id="LZrvzb4El88QJyoIHWKF-67" value="ima" style="shape=rhombus;perimeter=rhombusPerimeter;whiteSpace=wrap;html=1;align=center;fontSize=20;" parent="1" vertex="1">
          <mxGeometry x="2694" y="550.3199999999999" width="131" height="69.5" as="geometry" />
        </mxCell>
        <mxCell id="LZrvzb4El88QJyoIHWKF-68" value="" style="endArrow=none;html=1;rounded=0;exitX=1;exitY=1;exitDx=0;exitDy=0;entryX=0;entryY=0;entryDx=0;entryDy=0;fontSize=20;" parent="1" source="LZrvzb4El88QJyoIHWKF-5" target="LZrvzb4El88QJyoIHWKF-67" edge="1">
          <mxGeometry relative="1" as="geometry">
            <mxPoint x="2764.5" y="954.5" as="sourcePoint" />
            <mxPoint x="2929" y="910" as="targetPoint" />
          </mxGeometry>
        </mxCell>
        <mxCell id="Ie1zxg29YfYXZfsm2byp-27" value="(1,N)" style="edgeLabel;html=1;align=center;verticalAlign=middle;resizable=0;points=[];fontSize=20;" parent="LZrvzb4El88QJyoIHWKF-68" vertex="1" connectable="0">
          <mxGeometry x="-0.4312" relative="1" as="geometry">
            <mxPoint as="offset" />
          </mxGeometry>
        </mxCell>
        <mxCell id="LZrvzb4El88QJyoIHWKF-69" value="" style="endArrow=none;html=1;rounded=0;exitX=0.017;exitY=0.649;exitDx=0;exitDy=0;exitPerimeter=0;entryX=0.908;entryY=0.6;entryDx=0;entryDy=0;entryPerimeter=0;fontSize=20;" parent="1" source="LZrvzb4El88QJyoIHWKF-45" target="LZrvzb4El88QJyoIHWKF-67" edge="1">
          <mxGeometry relative="1" as="geometry">
            <mxPoint x="3094" y="871" as="sourcePoint" />
            <mxPoint x="3254" y="871" as="targetPoint" />
          </mxGeometry>
        </mxCell>
        <mxCell id="Ie1zxg29YfYXZfsm2byp-28" value="(1,N)" style="edgeLabel;html=1;align=center;verticalAlign=middle;resizable=0;points=[];fontSize=20;" parent="LZrvzb4El88QJyoIHWKF-69" vertex="1" connectable="0">
          <mxGeometry x="-0.5618" y="-3" relative="1" as="geometry">
            <mxPoint as="offset" />
          </mxGeometry>
        </mxCell>
        <mxCell id="LZrvzb4El88QJyoIHWKF-74" value="vrsta" style="ellipse;whiteSpace=wrap;html=1;fontSize=20;" parent="1" vertex="1">
          <mxGeometry x="3210" y="855" width="137" height="40" as="geometry" />
        </mxCell>
        <mxCell id="LZrvzb4El88QJyoIHWKF-76" value="Promocija" style="rounded=0;whiteSpace=wrap;html=1;fontSize=20;" parent="1" vertex="1">
          <mxGeometry x="2120" y="608.5" width="120" height="57" as="geometry" />
        </mxCell>
        <mxCell id="LZrvzb4El88QJyoIHWKF-77" value="naziv" style="ellipse;whiteSpace=wrap;html=1;fontSize=20;" parent="1" vertex="1">
          <mxGeometry x="2020" y="554" width="100" height="40" as="geometry" />
        </mxCell>
        <mxCell id="LZrvzb4El88QJyoIHWKF-78" value="" style="endArrow=none;html=1;rounded=0;exitX=0.808;exitY=0.927;exitDx=0;exitDy=0;entryX=0.125;entryY=-0.033;entryDx=0;entryDy=0;exitPerimeter=0;entryPerimeter=0;fontSize=20;" parent="1" source="LZrvzb4El88QJyoIHWKF-77" target="LZrvzb4El88QJyoIHWKF-76" edge="1">
          <mxGeometry relative="1" as="geometry">
            <mxPoint x="2080" y="658.5" as="sourcePoint" />
            <mxPoint x="2130" y="648.5" as="targetPoint" />
          </mxGeometry>
        </mxCell>
        <mxCell id="LZrvzb4El88QJyoIHWKF-81" value="datum_početka" style="ellipse;whiteSpace=wrap;html=1;fontSize=20;" parent="1" vertex="1">
          <mxGeometry x="2091" y="509" width="137" height="40" as="geometry" />
        </mxCell>
        <mxCell id="LZrvzb4El88QJyoIHWKF-82" value="" style="endArrow=none;html=1;rounded=0;exitX=0.658;exitY=0.962;exitDx=0;exitDy=0;entryX=0.46;entryY=0.006;entryDx=0;entryDy=0;entryPerimeter=0;fontSize=20;exitPerimeter=0;" parent="1" source="LZrvzb4El88QJyoIHWKF-81" target="LZrvzb4El88QJyoIHWKF-76" edge="1">
          <mxGeometry relative="1" as="geometry">
            <mxPoint x="2151" y="613.5" as="sourcePoint" />
            <mxPoint x="2206" y="561.5" as="targetPoint" />
          </mxGeometry>
        </mxCell>
        <mxCell id="LZrvzb4El88QJyoIHWKF-83" value="ima" style="shape=rhombus;perimeter=rhombusPerimeter;whiteSpace=wrap;html=1;align=center;fontSize=20;" parent="1" vertex="1">
          <mxGeometry x="2274" y="549.9999999999999" width="131" height="69.5" as="geometry" />
        </mxCell>
        <mxCell id="LZrvzb4El88QJyoIHWKF-84" value="" style="endArrow=none;html=1;rounded=0;exitX=1;exitY=0.5;exitDx=0;exitDy=0;entryX=0;entryY=1;entryDx=0;entryDy=0;fontSize=20;" parent="1" source="LZrvzb4El88QJyoIHWKF-76" target="LZrvzb4El88QJyoIHWKF-83" edge="1">
          <mxGeometry relative="1" as="geometry">
            <mxPoint x="2183" y="525.5" as="sourcePoint" />
            <mxPoint x="2528" y="967.5" as="targetPoint" />
          </mxGeometry>
        </mxCell>
        <mxCell id="Ie1zxg29YfYXZfsm2byp-32" value="(1,N)" style="edgeLabel;html=1;align=center;verticalAlign=middle;resizable=0;points=[];fontSize=20;" parent="LZrvzb4El88QJyoIHWKF-84" vertex="1" connectable="0">
          <mxGeometry x="-0.1653" y="-3" relative="1" as="geometry">
            <mxPoint y="1" as="offset" />
          </mxGeometry>
        </mxCell>
        <mxCell id="LZrvzb4El88QJyoIHWKF-85" value="" style="endArrow=none;html=1;rounded=0;exitX=0;exitY=1;exitDx=0;exitDy=0;entryX=0.679;entryY=0.146;entryDx=0;entryDy=0;entryPerimeter=0;fontSize=20;" parent="1" source="LZrvzb4El88QJyoIHWKF-5" target="LZrvzb4El88QJyoIHWKF-83" edge="1">
          <mxGeometry relative="1" as="geometry">
            <mxPoint x="2665" y="752.5" as="sourcePoint" />
            <mxPoint x="2853" y="928.5" as="targetPoint" />
          </mxGeometry>
        </mxCell>
        <mxCell id="Ie1zxg29YfYXZfsm2byp-31" value="(1,N)" style="edgeLabel;html=1;align=center;verticalAlign=middle;resizable=0;points=[];fontSize=20;" parent="LZrvzb4El88QJyoIHWKF-85" vertex="1" connectable="0">
          <mxGeometry x="-0.7062" y="2" relative="1" as="geometry">
            <mxPoint as="offset" />
          </mxGeometry>
        </mxCell>
        <mxCell id="LZrvzb4El88QJyoIHWKF-86" value="ima" style="shape=rhombus;perimeter=rhombusPerimeter;whiteSpace=wrap;html=1;align=center;fontSize=20;" parent="1" vertex="1">
          <mxGeometry x="2379" y="619.8199999999999" width="131" height="69.5" as="geometry" />
        </mxCell>
        <mxCell id="LZrvzb4El88QJyoIHWKF-87" value="" style="endArrow=none;html=1;rounded=0;exitX=0.7;exitY=0.026;exitDx=0;exitDy=0;entryX=0.317;entryY=0.849;entryDx=0;entryDy=0;exitPerimeter=0;entryPerimeter=0;fontSize=20;" parent="1" source="LZrvzb4El88QJyoIHWKF-36" target="LZrvzb4El88QJyoIHWKF-86" edge="1">
          <mxGeometry relative="1" as="geometry">
            <mxPoint x="2336.5" y="707" as="sourcePoint" />
            <mxPoint x="2650.5" y="1052.5" as="targetPoint" />
          </mxGeometry>
        </mxCell>
        <mxCell id="Ie1zxg29YfYXZfsm2byp-26" value="(1,N)" style="edgeLabel;html=1;align=center;verticalAlign=middle;resizable=0;points=[];fontSize=20;" parent="LZrvzb4El88QJyoIHWKF-87" vertex="1" connectable="0">
          <mxGeometry x="-0.5904" y="3" relative="1" as="geometry">
            <mxPoint as="offset" />
          </mxGeometry>
        </mxCell>
        <mxCell id="LZrvzb4El88QJyoIHWKF-88" value="" style="endArrow=none;html=1;rounded=0;exitX=0.5;exitY=1;exitDx=0;exitDy=0;entryX=0.679;entryY=0.146;entryDx=0;entryDy=0;entryPerimeter=0;fontSize=20;" parent="1" source="LZrvzb4El88QJyoIHWKF-5" target="LZrvzb4El88QJyoIHWKF-86" edge="1">
          <mxGeometry relative="1" as="geometry">
            <mxPoint x="2633.5" y="540" as="sourcePoint" />
            <mxPoint x="2975.5" y="1013.5" as="targetPoint" />
          </mxGeometry>
        </mxCell>
        <mxCell id="Ie1zxg29YfYXZfsm2byp-25" value="(1,N)" style="edgeLabel;html=1;align=center;verticalAlign=middle;resizable=0;points=[];fontSize=20;" parent="LZrvzb4El88QJyoIHWKF-88" vertex="1" connectable="0">
          <mxGeometry x="-0.6879" y="5" relative="1" as="geometry">
            <mxPoint as="offset" />
          </mxGeometry>
        </mxCell>
        <mxCell id="LZrvzb4El88QJyoIHWKF-89" value="ima" style="shape=rhombus;perimeter=rhombusPerimeter;whiteSpace=wrap;html=1;align=center;fontSize=20;" parent="1" vertex="1">
          <mxGeometry x="2756" y="362.5" width="129" height="69.5" as="geometry" />
        </mxCell>
        <mxCell id="LZrvzb4El88QJyoIHWKF-90" value="" style="endArrow=none;html=1;rounded=0;exitX=1;exitY=0.25;exitDx=0;exitDy=0;entryX=0.116;entryY=0.608;entryDx=0;entryDy=0;entryPerimeter=0;fontSize=20;" parent="1" source="LZrvzb4El88QJyoIHWKF-5" target="LZrvzb4El88QJyoIHWKF-89" edge="1">
          <mxGeometry relative="1" as="geometry">
            <mxPoint x="2683" y="363" as="sourcePoint" />
            <mxPoint x="3028" y="805" as="targetPoint" />
          </mxGeometry>
        </mxCell>
        <mxCell id="Ie1zxg29YfYXZfsm2byp-23" value="(1,N)" style="edgeLabel;html=1;align=center;verticalAlign=middle;resizable=0;points=[];fontSize=20;" parent="LZrvzb4El88QJyoIHWKF-90" vertex="1" connectable="0">
          <mxGeometry x="-0.4783" y="-2" relative="1" as="geometry">
            <mxPoint as="offset" />
          </mxGeometry>
        </mxCell>
        <mxCell id="LZrvzb4El88QJyoIHWKF-91" value="" style="endArrow=none;html=1;rounded=0;exitX=0;exitY=0.5;exitDx=0;exitDy=0;entryX=0.832;entryY=0.326;entryDx=0;entryDy=0;entryPerimeter=0;fontSize=20;" parent="1" source="LZrvzb4El88QJyoIHWKF-21" target="LZrvzb4El88QJyoIHWKF-89" edge="1">
          <mxGeometry relative="1" as="geometry">
            <mxPoint x="3165" y="590" as="sourcePoint" />
            <mxPoint x="3353" y="766" as="targetPoint" />
          </mxGeometry>
        </mxCell>
        <mxCell id="Ie1zxg29YfYXZfsm2byp-24" value="(1,N)" style="edgeLabel;html=1;align=center;verticalAlign=middle;resizable=0;points=[];fontSize=20;" parent="LZrvzb4El88QJyoIHWKF-91" vertex="1" connectable="0">
          <mxGeometry x="-0.5844" y="-1" relative="1" as="geometry">
            <mxPoint as="offset" />
          </mxGeometry>
        </mxCell>
        <mxCell id="LZrvzb4El88QJyoIHWKF-92" value="Izlog" style="rounded=0;whiteSpace=wrap;html=1;fontSize=20;" parent="1" vertex="1">
          <mxGeometry x="2794" y="190.5" width="131" height="57" as="geometry" />
        </mxCell>
        <mxCell id="LZrvzb4El88QJyoIHWKF-93" value="broj_primjeraka" style="ellipse;whiteSpace=wrap;html=1;fontSize=20;" parent="1" vertex="1">
          <mxGeometry x="2694" y="136" width="140" height="33" as="geometry" />
        </mxCell>
        <mxCell id="LZrvzb4El88QJyoIHWKF-94" value="" style="endArrow=none;html=1;rounded=0;exitX=0.808;exitY=0.927;exitDx=0;exitDy=0;entryX=0.125;entryY=-0.033;entryDx=0;entryDy=0;exitPerimeter=0;entryPerimeter=0;fontSize=20;" parent="1" source="LZrvzb4El88QJyoIHWKF-93" target="LZrvzb4El88QJyoIHWKF-92" edge="1">
          <mxGeometry relative="1" as="geometry">
            <mxPoint x="2754" y="240.5" as="sourcePoint" />
            <mxPoint x="2804" y="230.5" as="targetPoint" />
          </mxGeometry>
        </mxCell>
        <mxCell id="LZrvzb4El88QJyoIHWKF-97" value="broj_police" style="ellipse;whiteSpace=wrap;html=1;fontSize=20;" parent="1" vertex="1">
          <mxGeometry x="2765" y="91" width="100" height="40" as="geometry" />
        </mxCell>
        <mxCell id="LZrvzb4El88QJyoIHWKF-98" value="" style="endArrow=none;html=1;rounded=0;exitX=1;exitY=1;exitDx=0;exitDy=0;entryX=0.46;entryY=0.006;entryDx=0;entryDy=0;entryPerimeter=0;fontSize=20;" parent="1" source="LZrvzb4El88QJyoIHWKF-97" target="LZrvzb4El88QJyoIHWKF-92" edge="1">
          <mxGeometry relative="1" as="geometry">
            <mxPoint x="2825" y="195.5" as="sourcePoint" />
            <mxPoint x="2880" y="143.5" as="targetPoint" />
          </mxGeometry>
        </mxCell>
        <mxCell id="LZrvzb4El88QJyoIHWKF-101" value="ima" style="shape=rhombus;perimeter=rhombusPerimeter;whiteSpace=wrap;html=1;align=center;fontSize=20;" parent="1" vertex="1">
          <mxGeometry x="2600" y="281.5" width="129" height="69.5" as="geometry" />
        </mxCell>
        <mxCell id="LZrvzb4El88QJyoIHWKF-102" value="" style="endArrow=none;html=1;rounded=0;exitX=0;exitY=0.5;exitDx=0;exitDy=0;entryX=0.832;entryY=0.326;entryDx=0;entryDy=0;entryPerimeter=0;fontSize=20;" parent="1" source="LZrvzb4El88QJyoIHWKF-92" target="LZrvzb4El88QJyoIHWKF-101" edge="1">
          <mxGeometry relative="1" as="geometry">
            <mxPoint x="3025" y="371" as="sourcePoint" />
            <mxPoint x="3213" y="547" as="targetPoint" />
          </mxGeometry>
        </mxCell>
        <mxCell id="Ie1zxg29YfYXZfsm2byp-35" value="(1,N)" style="edgeLabel;html=1;align=center;verticalAlign=middle;resizable=0;points=[];fontSize=20;" parent="LZrvzb4El88QJyoIHWKF-102" vertex="1" connectable="0">
          <mxGeometry x="-0.515" y="-2" relative="1" as="geometry">
            <mxPoint as="offset" />
          </mxGeometry>
        </mxCell>
        <mxCell id="Ie1zxg29YfYXZfsm2byp-1" value="" style="endArrow=none;html=1;rounded=0;exitX=0.858;exitY=0.018;exitDx=0;exitDy=0;entryX=0;entryY=1;entryDx=0;entryDy=0;exitPerimeter=0;fontSize=20;" parent="1" source="LZrvzb4El88QJyoIHWKF-5" target="LZrvzb4El88QJyoIHWKF-101" edge="1">
          <mxGeometry relative="1" as="geometry">
            <mxPoint x="2597" y="438" as="sourcePoint" />
            <mxPoint x="2784" y="418" as="targetPoint" />
          </mxGeometry>
        </mxCell>
        <mxCell id="Ie1zxg29YfYXZfsm2byp-36" value="(1,1)" style="edgeLabel;html=1;align=center;verticalAlign=middle;resizable=0;points=[];fontSize=20;" parent="Ie1zxg29YfYXZfsm2byp-1" vertex="1" connectable="0">
          <mxGeometry x="-0.6049" y="4" relative="1" as="geometry">
            <mxPoint as="offset" />
          </mxGeometry>
        </mxCell>
        <mxCell id="Ie1zxg29YfYXZfsm2byp-2" value="Recenzija" style="rounded=0;whiteSpace=wrap;html=1;fontSize=20;" parent="1" vertex="1">
          <mxGeometry x="2510" y="825.25" width="131" height="61.75" as="geometry" />
        </mxCell>
        <mxCell id="Ie1zxg29YfYXZfsm2byp-5" value="ocjena" style="ellipse;whiteSpace=wrap;html=1;fontSize=20;" parent="1" vertex="1">
          <mxGeometry x="2340" y="875" width="100" height="40" as="geometry" />
        </mxCell>
        <mxCell id="Ie1zxg29YfYXZfsm2byp-6" value="" style="endArrow=none;html=1;rounded=0;exitX=0.966;exitY=0.322;exitDx=0;exitDy=0;entryX=0;entryY=0.25;entryDx=0;entryDy=0;fontSize=20;exitPerimeter=0;" parent="1" source="Ie1zxg29YfYXZfsm2byp-5" target="Ie1zxg29YfYXZfsm2byp-2" edge="1">
          <mxGeometry relative="1" as="geometry">
            <mxPoint x="2730.5" y="828.25" as="sourcePoint" />
            <mxPoint x="2785.5" y="776.25" as="targetPoint" />
          </mxGeometry>
        </mxCell>
        <mxCell id="Ie1zxg29YfYXZfsm2byp-7" value="ima" style="shape=rhombus;perimeter=rhombusPerimeter;whiteSpace=wrap;html=1;align=center;fontSize=20;" parent="1" vertex="1">
          <mxGeometry x="2533" y="606.25" width="129" height="69.5" as="geometry" />
        </mxCell>
        <mxCell id="Ie1zxg29YfYXZfsm2byp-8" value="" style="endArrow=none;html=1;rounded=0;exitX=0.5;exitY=0;exitDx=0;exitDy=0;entryX=0.5;entryY=1;entryDx=0;entryDy=0;fontSize=20;" parent="1" source="Ie1zxg29YfYXZfsm2byp-2" target="Ie1zxg29YfYXZfsm2byp-7" edge="1">
          <mxGeometry relative="1" as="geometry">
            <mxPoint x="2420.75" y="313.75" as="sourcePoint" />
            <mxPoint x="2608.75" y="489.75" as="targetPoint" />
          </mxGeometry>
        </mxCell>
        <mxCell id="Ie1zxg29YfYXZfsm2byp-33" value="(1,1)" style="edgeLabel;html=1;align=center;verticalAlign=middle;resizable=0;points=[];fontSize=20;" parent="Ie1zxg29YfYXZfsm2byp-8" vertex="1" connectable="0">
          <mxGeometry x="-0.4745" relative="1" as="geometry">
            <mxPoint y="-1" as="offset" />
          </mxGeometry>
        </mxCell>
        <mxCell id="Ie1zxg29YfYXZfsm2byp-9" value="" style="endArrow=none;html=1;rounded=0;exitX=0.75;exitY=1;exitDx=0;exitDy=0;entryX=0.388;entryY=0.065;entryDx=0;entryDy=0;fontSize=20;entryPerimeter=0;" parent="1" source="LZrvzb4El88QJyoIHWKF-5" target="Ie1zxg29YfYXZfsm2byp-7" edge="1">
          <mxGeometry relative="1" as="geometry">
            <mxPoint x="2314" y="277" as="sourcePoint" />
            <mxPoint x="2531" y="283" as="targetPoint" />
          </mxGeometry>
        </mxCell>
        <mxCell id="Ie1zxg29YfYXZfsm2byp-34" value="(1,N)" style="edgeLabel;html=1;align=center;verticalAlign=middle;resizable=0;points=[];fontSize=20;" parent="Ie1zxg29YfYXZfsm2byp-9" vertex="1" connectable="0">
          <mxGeometry x="-0.7095" y="2" relative="1" as="geometry">
            <mxPoint x="1" as="offset" />
          </mxGeometry>
        </mxCell>
        <mxCell id="Ie1zxg29YfYXZfsm2byp-10" value="datum" style="ellipse;whiteSpace=wrap;html=1;align=center;fontSize=20;" parent="1" vertex="1">
          <mxGeometry x="2360.5" y="928.63" width="125" height="38" as="geometry" />
        </mxCell>
        <mxCell id="Ie1zxg29YfYXZfsm2byp-11" value="" style="endArrow=none;html=1;rounded=0;exitX=0;exitY=0.75;exitDx=0;exitDy=0;entryX=1;entryY=0.5;entryDx=0;entryDy=0;fontSize=20;" parent="1" source="Ie1zxg29YfYXZfsm2byp-2" target="Ie1zxg29YfYXZfsm2byp-10" edge="1">
          <mxGeometry relative="1" as="geometry">
            <mxPoint x="2843" y="789.25" as="sourcePoint" />
            <mxPoint x="3045" y="871.75" as="targetPoint" />
          </mxGeometry>
        </mxCell>
        <mxCell id="Ie1zxg29YfYXZfsm2byp-12" value="tekst" style="ellipse;whiteSpace=wrap;html=1;align=center;fontSize=20;" parent="1" vertex="1">
          <mxGeometry x="2485.5" y="956" width="127" height="39" as="geometry" />
        </mxCell>
        <mxCell id="Ie1zxg29YfYXZfsm2byp-13" value="" style="endArrow=none;html=1;rounded=0;exitX=0.25;exitY=1;exitDx=0;exitDy=0;entryX=0.309;entryY=0.062;entryDx=0;entryDy=0;fontSize=20;entryPerimeter=0;" parent="1" source="Ie1zxg29YfYXZfsm2byp-2" target="Ie1zxg29YfYXZfsm2byp-12" edge="1">
          <mxGeometry relative="1" as="geometry">
            <mxPoint x="2843" y="817.25" as="sourcePoint" />
            <mxPoint x="3061" y="941.25" as="targetPoint" />
          </mxGeometry>
        </mxCell>
        <mxCell id="Ie1zxg29YfYXZfsm2byp-14" value="Plaćanje" style="rounded=0;whiteSpace=wrap;html=1;fontSize=20;" parent="1" vertex="1">
          <mxGeometry x="3289" y="766.25" width="131" height="57" as="geometry" />
        </mxCell>
        <mxCell id="Ie1zxg29YfYXZfsm2byp-16" value="" style="endArrow=none;html=1;rounded=0;exitX=1;exitY=0;exitDx=0;exitDy=0;fontSize=20;entryX=0.5;entryY=1;entryDx=0;entryDy=0;" parent="1" source="LZrvzb4El88QJyoIHWKF-74" target="Ie1zxg29YfYXZfsm2byp-14" edge="1">
          <mxGeometry relative="1" as="geometry">
            <mxPoint x="3353.120000000001" y="768.7109999999999" as="sourcePoint" />
            <mxPoint x="3403" y="901.62" as="targetPoint" />
          </mxGeometry>
        </mxCell>
        <mxCell id="Ie1zxg29YfYXZfsm2byp-19" value="ima" style="shape=rhombus;perimeter=rhombusPerimeter;whiteSpace=wrap;html=1;align=center;fontSize=20;" parent="1" vertex="1">
          <mxGeometry x="3106" y="680" width="129" height="69.5" as="geometry" />
        </mxCell>
        <mxCell id="Ie1zxg29YfYXZfsm2byp-20" value="" style="endArrow=none;html=1;rounded=0;exitX=0;exitY=0;exitDx=0;exitDy=0;entryX=1;entryY=1;entryDx=0;entryDy=0;fontSize=20;" parent="1" source="Ie1zxg29YfYXZfsm2byp-14" target="Ie1zxg29YfYXZfsm2byp-19" edge="1">
          <mxGeometry relative="1" as="geometry">
            <mxPoint x="3686" y="893.68" as="sourcePoint" />
            <mxPoint x="3874" y="1069.68" as="targetPoint" />
          </mxGeometry>
        </mxCell>
        <mxCell id="Ie1zxg29YfYXZfsm2byp-30" value="(1,N)" style="edgeLabel;html=1;align=center;verticalAlign=middle;resizable=0;points=[];fontSize=20;" parent="Ie1zxg29YfYXZfsm2byp-20" vertex="1" connectable="0">
          <mxGeometry x="-0.2951" y="-3" relative="1" as="geometry">
            <mxPoint x="12" y="7" as="offset" />
          </mxGeometry>
        </mxCell>
        <mxCell id="Ie1zxg29YfYXZfsm2byp-21" value="" style="endArrow=none;html=1;rounded=0;exitX=0.75;exitY=1;exitDx=0;exitDy=0;fontSize=20;" parent="1" source="LZrvzb4El88QJyoIHWKF-45" target="Ie1zxg29YfYXZfsm2byp-19" edge="1">
          <mxGeometry relative="1" as="geometry">
            <mxPoint x="2544" y="983.5" as="sourcePoint" />
            <mxPoint x="2761" y="989.5" as="targetPoint" />
          </mxGeometry>
        </mxCell>
        <mxCell id="Ie1zxg29YfYXZfsm2byp-29" value="(1,1)" style="edgeLabel;html=1;align=center;verticalAlign=middle;resizable=0;points=[];fontSize=20;" parent="Ie1zxg29YfYXZfsm2byp-21" vertex="1" connectable="0">
          <mxGeometry x="-0.3911" y="3" relative="1" as="geometry">
            <mxPoint as="offset" />
          </mxGeometry>
        </mxCell>
        <mxCell id="Ie1zxg29YfYXZfsm2byp-37" value="Adresa" style="rounded=0;whiteSpace=wrap;html=1;fontSize=20;" parent="1" vertex="1">
          <mxGeometry x="3571.36" y="778.68" width="120" height="57" as="geometry" />
        </mxCell>
        <mxCell id="Ie1zxg29YfYXZfsm2byp-38" value="grad" style="ellipse;whiteSpace=wrap;html=1;fontSize=20;fontStyle=1" parent="1" vertex="1">
          <mxGeometry x="3642.36" y="887" width="100" height="40" as="geometry" />
        </mxCell>
        <mxCell id="Ie1zxg29YfYXZfsm2byp-39" value="" style="endArrow=none;html=1;rounded=0;exitX=0.363;exitY=0.008;exitDx=0;exitDy=0;entryX=0.75;entryY=1;entryDx=0;entryDy=0;exitPerimeter=0;fontSize=20;" parent="1" source="Ie1zxg29YfYXZfsm2byp-38" target="Ie1zxg29YfYXZfsm2byp-37" edge="1">
          <mxGeometry relative="1" as="geometry">
            <mxPoint x="3531.36" y="828.68" as="sourcePoint" />
            <mxPoint x="3581.36" y="818.68" as="targetPoint" />
          </mxGeometry>
        </mxCell>
        <mxCell id="Ie1zxg29YfYXZfsm2byp-40" value="poštanski_broj" style="ellipse;whiteSpace=wrap;html=1;align=center;fontSize=20;" parent="1" vertex="1">
          <mxGeometry x="3707.36" y="719.68" width="140.64" height="47.32" as="geometry" />
        </mxCell>
        <mxCell id="Ie1zxg29YfYXZfsm2byp-41" value="" style="endArrow=none;html=1;rounded=0;exitX=1;exitY=0;exitDx=0;exitDy=0;entryX=0;entryY=1;entryDx=0;entryDy=0;fontSize=20;" parent="1" source="Ie1zxg29YfYXZfsm2byp-37" target="Ie1zxg29YfYXZfsm2byp-40" edge="1">
          <mxGeometry relative="1" as="geometry">
            <mxPoint x="3733.36" y="861.68" as="sourcePoint" />
            <mxPoint x="3893.36" y="861.68" as="targetPoint" />
          </mxGeometry>
        </mxCell>
        <mxCell id="Ie1zxg29YfYXZfsm2byp-42" value="država" style="ellipse;whiteSpace=wrap;html=1;fontSize=20;" parent="1" vertex="1">
          <mxGeometry x="3542.36" y="679.18" width="100" height="40" as="geometry" />
        </mxCell>
        <mxCell id="Ie1zxg29YfYXZfsm2byp-43" value="" style="endArrow=none;html=1;rounded=0;exitX=1;exitY=1;exitDx=0;exitDy=0;entryX=0.46;entryY=0.006;entryDx=0;entryDy=0;entryPerimeter=0;fontSize=20;" parent="1" source="Ie1zxg29YfYXZfsm2byp-42" target="Ie1zxg29YfYXZfsm2byp-37" edge="1">
          <mxGeometry relative="1" as="geometry">
            <mxPoint x="3602.36" y="783.68" as="sourcePoint" />
            <mxPoint x="3657.36" y="731.68" as="targetPoint" />
          </mxGeometry>
        </mxCell>
        <mxCell id="Ie1zxg29YfYXZfsm2byp-44" value="ulica" style="ellipse;whiteSpace=wrap;html=1;align=center;fontSize=20;" parent="1" vertex="1">
          <mxGeometry x="3723.36" y="809.68" width="127" height="39" as="geometry" />
        </mxCell>
        <mxCell id="Ie1zxg29YfYXZfsm2byp-45" value="" style="endArrow=none;html=1;rounded=0;exitX=1;exitY=0.5;exitDx=0;exitDy=0;entryX=0;entryY=0.5;entryDx=0;entryDy=0;fontSize=20;" parent="1" source="Ie1zxg29YfYXZfsm2byp-37" target="Ie1zxg29YfYXZfsm2byp-44" edge="1">
          <mxGeometry relative="1" as="geometry">
            <mxPoint x="3707.36" y="848.18" as="sourcePoint" />
            <mxPoint x="3909.36" y="931.18" as="targetPoint" />
          </mxGeometry>
        </mxCell>
        <mxCell id="Ie1zxg29YfYXZfsm2byp-47" value="Žanr" style="rounded=0;whiteSpace=wrap;html=1;fontSize=20;" parent="1" vertex="1">
          <mxGeometry x="2076" y="259.78" width="131" height="57" as="geometry" />
        </mxCell>
        <mxCell id="Ie1zxg29YfYXZfsm2byp-48" value="naziv" style="ellipse;whiteSpace=wrap;html=1;fontSize=20;" parent="1" vertex="1">
          <mxGeometry x="1976" y="205.28" width="140" height="33" as="geometry" />
        </mxCell>
        <mxCell id="Ie1zxg29YfYXZfsm2byp-49" value="" style="endArrow=none;html=1;rounded=0;exitX=0.808;exitY=0.927;exitDx=0;exitDy=0;entryX=0.125;entryY=-0.033;entryDx=0;entryDy=0;exitPerimeter=0;entryPerimeter=0;fontSize=20;" parent="1" source="Ie1zxg29YfYXZfsm2byp-48" target="Ie1zxg29YfYXZfsm2byp-47" edge="1">
          <mxGeometry relative="1" as="geometry">
            <mxPoint x="2036" y="309.78" as="sourcePoint" />
            <mxPoint x="2086" y="299.78" as="targetPoint" />
          </mxGeometry>
        </mxCell>
        <mxCell id="Ie1zxg29YfYXZfsm2byp-57" value="ima" style="shape=rhombus;perimeter=rhombusPerimeter;whiteSpace=wrap;html=1;align=center;fontSize=20;" parent="1" vertex="1">
          <mxGeometry x="3259" y="489.5" width="129" height="69.5" as="geometry" />
        </mxCell>
        <mxCell id="Ie1zxg29YfYXZfsm2byp-58" value="" style="endArrow=none;html=1;rounded=0;exitX=1;exitY=1;exitDx=0;exitDy=0;entryX=0;entryY=0;entryDx=0;entryDy=0;fontSize=20;" parent="1" source="LZrvzb4El88QJyoIHWKF-21" target="Ie1zxg29YfYXZfsm2byp-57" edge="1">
          <mxGeometry relative="1" as="geometry">
            <mxPoint x="2973" y="288.28" as="sourcePoint" />
            <mxPoint x="3417" y="668.28" as="targetPoint" />
          </mxGeometry>
        </mxCell>
        <mxCell id="Ie1zxg29YfYXZfsm2byp-59" value="(1,1)" style="edgeLabel;html=1;align=center;verticalAlign=middle;resizable=0;points=[];fontSize=20;" parent="Ie1zxg29YfYXZfsm2byp-58" vertex="1" connectable="0">
          <mxGeometry x="-0.4783" y="-2" relative="1" as="geometry">
            <mxPoint as="offset" />
          </mxGeometry>
        </mxCell>
        <mxCell id="Ie1zxg29YfYXZfsm2byp-60" value="" style="endArrow=none;html=1;rounded=0;exitX=0;exitY=0.25;exitDx=0;exitDy=0;entryX=1;entryY=1;entryDx=0;entryDy=0;fontSize=20;" parent="1" source="Ie1zxg29YfYXZfsm2byp-37" target="Ie1zxg29YfYXZfsm2byp-57" edge="1">
          <mxGeometry relative="1" as="geometry">
            <mxPoint x="3388" y="223.28" as="sourcePoint" />
            <mxPoint x="3742" y="629.28" as="targetPoint" />
          </mxGeometry>
        </mxCell>
        <mxCell id="Ie1zxg29YfYXZfsm2byp-61" value="(1,N)" style="edgeLabel;html=1;align=center;verticalAlign=middle;resizable=0;points=[];fontSize=20;" parent="Ie1zxg29YfYXZfsm2byp-60" vertex="1" connectable="0">
          <mxGeometry x="-0.5844" y="-1" relative="1" as="geometry">
            <mxPoint as="offset" />
          </mxGeometry>
        </mxCell>
        <mxCell id="Ie1zxg29YfYXZfsm2byp-62" value="Kontakt_osoba" style="rounded=0;whiteSpace=wrap;html=1;fontSize=20;" parent="1" vertex="1">
          <mxGeometry x="3139" y="111.99999999999997" width="120" height="57" as="geometry" />
        </mxCell>
        <mxCell id="Ie1zxg29YfYXZfsm2byp-63" value="ime" style="ellipse;whiteSpace=wrap;html=1;fontSize=20;" parent="1" vertex="1">
          <mxGeometry x="3039" y="69.53" width="100" height="40" as="geometry" />
        </mxCell>
        <mxCell id="Ie1zxg29YfYXZfsm2byp-64" value="" style="endArrow=none;html=1;rounded=0;exitX=0.808;exitY=0.927;exitDx=0;exitDy=0;entryX=0;entryY=0.25;entryDx=0;entryDy=0;exitPerimeter=0;fontSize=20;" parent="1" source="Ie1zxg29YfYXZfsm2byp-63" target="Ie1zxg29YfYXZfsm2byp-62" edge="1">
          <mxGeometry relative="1" as="geometry">
            <mxPoint x="3099" y="174.02999999999997" as="sourcePoint" />
            <mxPoint x="3149" y="164.02999999999997" as="targetPoint" />
          </mxGeometry>
        </mxCell>
        <mxCell id="Ie1zxg29YfYXZfsm2byp-65" value="prezime" style="ellipse;whiteSpace=wrap;html=1;align=center;fontSize=20;" parent="1" vertex="1">
          <mxGeometry x="3275" y="65.03" width="125" height="38" as="geometry" />
        </mxCell>
        <mxCell id="Ie1zxg29YfYXZfsm2byp-66" value="" style="endArrow=none;html=1;rounded=0;exitX=1;exitY=0;exitDx=0;exitDy=0;entryX=0;entryY=1;entryDx=0;entryDy=0;fontSize=20;" parent="1" source="Ie1zxg29YfYXZfsm2byp-62" target="Ie1zxg29YfYXZfsm2byp-65" edge="1">
          <mxGeometry relative="1" as="geometry">
            <mxPoint x="3301" y="207.02999999999997" as="sourcePoint" />
            <mxPoint x="3461" y="207.02999999999997" as="targetPoint" />
          </mxGeometry>
        </mxCell>
        <mxCell id="Ie1zxg29YfYXZfsm2byp-67" value="telefon" style="ellipse;whiteSpace=wrap;html=1;fontSize=20;" parent="1" vertex="1">
          <mxGeometry x="3110" y="24.53" width="100" height="40" as="geometry" />
        </mxCell>
        <mxCell id="Ie1zxg29YfYXZfsm2byp-68" value="" style="endArrow=none;html=1;rounded=0;exitX=1;exitY=1;exitDx=0;exitDy=0;entryX=0.46;entryY=0.006;entryDx=0;entryDy=0;entryPerimeter=0;fontSize=20;" parent="1" source="Ie1zxg29YfYXZfsm2byp-67" target="Ie1zxg29YfYXZfsm2byp-62" edge="1">
          <mxGeometry relative="1" as="geometry">
            <mxPoint x="3170" y="129.02999999999997" as="sourcePoint" />
            <mxPoint x="3225" y="77.02999999999997" as="targetPoint" />
          </mxGeometry>
        </mxCell>
        <mxCell id="Ie1zxg29YfYXZfsm2byp-71" value="ima" style="shape=rhombus;perimeter=rhombusPerimeter;whiteSpace=wrap;html=1;align=center;fontSize=20;" parent="1" vertex="1">
          <mxGeometry x="3035" y="205.28" width="129" height="69.5" as="geometry" />
        </mxCell>
        <mxCell id="Ie1zxg29YfYXZfsm2byp-72" value="" style="endArrow=none;html=1;rounded=0;exitX=0.5;exitY=0;exitDx=0;exitDy=0;entryX=0.344;entryY=0.901;entryDx=0;entryDy=0;fontSize=20;entryPerimeter=0;" parent="1" source="LZrvzb4El88QJyoIHWKF-21" target="Ie1zxg29YfYXZfsm2byp-71" edge="1">
          <mxGeometry relative="1" as="geometry">
            <mxPoint x="3286" y="539.03" as="sourcePoint" />
            <mxPoint x="3625" y="873.31" as="targetPoint" />
          </mxGeometry>
        </mxCell>
        <mxCell id="Ie1zxg29YfYXZfsm2byp-73" value="(1,1)" style="edgeLabel;html=1;align=center;verticalAlign=middle;resizable=0;points=[];fontSize=20;" parent="Ie1zxg29YfYXZfsm2byp-72" vertex="1" connectable="0">
          <mxGeometry x="-0.4783" y="-2" relative="1" as="geometry">
            <mxPoint as="offset" />
          </mxGeometry>
        </mxCell>
        <mxCell id="Ie1zxg29YfYXZfsm2byp-74" value="" style="endArrow=none;html=1;rounded=0;exitX=0.356;exitY=0.988;exitDx=0;exitDy=0;entryX=0.832;entryY=0.326;entryDx=0;entryDy=0;entryPerimeter=0;fontSize=20;exitPerimeter=0;" parent="1" source="Ie1zxg29YfYXZfsm2byp-62" target="Ie1zxg29YfYXZfsm2byp-71" edge="1">
          <mxGeometry relative="1" as="geometry">
            <mxPoint x="3596" y="428.31" as="sourcePoint" />
            <mxPoint x="3950" y="834.31" as="targetPoint" />
          </mxGeometry>
        </mxCell>
        <mxCell id="Ie1zxg29YfYXZfsm2byp-75" value="(1,N)" style="edgeLabel;html=1;align=center;verticalAlign=middle;resizable=0;points=[];fontSize=20;" parent="Ie1zxg29YfYXZfsm2byp-74" vertex="1" connectable="0">
          <mxGeometry x="-0.5844" y="-1" relative="1" as="geometry">
            <mxPoint x="12" y="1" as="offset" />
          </mxGeometry>
        </mxCell>
        <mxCell id="Ie1zxg29YfYXZfsm2byp-76" value="količina" style="ellipse;whiteSpace=wrap;html=1;fontSize=20;" parent="1" vertex="1">
          <mxGeometry x="2782" y="456.50000000000006" width="130" height="40" as="geometry" />
        </mxCell>
        <mxCell id="Ie1zxg29YfYXZfsm2byp-77" value="" style="endArrow=none;html=1;rounded=0;exitX=0.344;exitY=1.009;exitDx=0;exitDy=0;entryX=1;entryY=0;entryDx=0;entryDy=0;fontSize=20;exitPerimeter=0;" parent="1" source="Ie1zxg29YfYXZfsm2byp-76" target="LZrvzb4El88QJyoIHWKF-67" edge="1">
          <mxGeometry relative="1" as="geometry">
            <mxPoint x="3004" y="577" as="sourcePoint" />
            <mxPoint x="3045" y="663" as="targetPoint" />
            <Array as="points" />
          </mxGeometry>
        </mxCell>
        <mxCell id="Ie1zxg29YfYXZfsm2byp-79" value="datum_kraja" style="ellipse;whiteSpace=wrap;html=1;fontSize=20;" parent="1" vertex="1">
          <mxGeometry x="1963" y="620" width="137" height="40" as="geometry" />
        </mxCell>
        <mxCell id="Ie1zxg29YfYXZfsm2byp-80" value="" style="endArrow=none;html=1;rounded=0;exitX=1;exitY=0.5;exitDx=0;exitDy=0;entryX=0;entryY=0.75;entryDx=0;entryDy=0;fontSize=20;" parent="1" source="Ie1zxg29YfYXZfsm2byp-79" target="LZrvzb4El88QJyoIHWKF-76" edge="1">
          <mxGeometry relative="1" as="geometry">
            <mxPoint x="2023" y="724.5" as="sourcePoint" />
            <mxPoint x="2047" y="720" as="targetPoint" />
          </mxGeometry>
        </mxCell>
        <mxCell id="Ie1zxg29YfYXZfsm2byp-81" value="ima" style="shape=rhombus;perimeter=rhombusPerimeter;whiteSpace=wrap;html=1;align=center;fontSize=20;" parent="1" vertex="1">
          <mxGeometry x="2222" y="332" width="129" height="69.5" as="geometry" />
        </mxCell>
        <mxCell id="Ie1zxg29YfYXZfsm2byp-82" value="" style="endArrow=none;html=1;rounded=0;exitX=0;exitY=0.5;exitDx=0;exitDy=0;entryX=1;entryY=1;entryDx=0;entryDy=0;fontSize=20;" parent="1" source="LZrvzb4El88QJyoIHWKF-5" target="Ie1zxg29YfYXZfsm2byp-81" edge="1">
          <mxGeometry relative="1" as="geometry">
            <mxPoint x="2292.25" y="496.5" as="sourcePoint" />
            <mxPoint x="2359.25" y="368.5" as="targetPoint" />
          </mxGeometry>
        </mxCell>
        <mxCell id="Ie1zxg29YfYXZfsm2byp-83" value="(1,N)" style="edgeLabel;html=1;align=center;verticalAlign=middle;resizable=0;points=[];fontSize=20;" parent="Ie1zxg29YfYXZfsm2byp-82" vertex="1" connectable="0">
          <mxGeometry x="-0.7095" y="2" relative="1" as="geometry">
            <mxPoint x="-7" y="-2" as="offset" />
          </mxGeometry>
        </mxCell>
        <mxCell id="Ie1zxg29YfYXZfsm2byp-84" value="" style="endArrow=none;html=1;rounded=0;exitX=0.679;exitY=1.021;exitDx=0;exitDy=0;entryX=0.066;entryY=0.381;entryDx=0;entryDy=0;exitPerimeter=0;entryPerimeter=0;fontSize=20;" parent="1" source="Ie1zxg29YfYXZfsm2byp-47" target="Ie1zxg29YfYXZfsm2byp-81" edge="1">
          <mxGeometry relative="1" as="geometry">
            <mxPoint x="1907" y="249" as="sourcePoint" />
            <mxPoint x="1910" y="271" as="targetPoint" />
          </mxGeometry>
        </mxCell>
        <mxCell id="qH8AKJEnJc2PzJP4Vwxa-20" value="(1,N)" style="edgeLabel;html=1;align=center;verticalAlign=middle;resizable=0;points=[];fontSize=20;" parent="Ie1zxg29YfYXZfsm2byp-84" vertex="1" connectable="0">
          <mxGeometry x="-0.2624" y="-1" relative="1" as="geometry">
            <mxPoint as="offset" />
          </mxGeometry>
        </mxCell>
        <mxCell id="qH8AKJEnJc2PzJP4Vwxa-2" value="Kupac" style="rounded=0;whiteSpace=wrap;html=1;fontSize=20;" parent="1" vertex="1">
          <mxGeometry x="2921.96" y="1025.88" width="131" height="61.75" as="geometry" />
        </mxCell>
        <mxCell id="qH8AKJEnJc2PzJP4Vwxa-3" value="ime" style="ellipse;whiteSpace=wrap;html=1;fontSize=20;" parent="1" vertex="1">
          <mxGeometry x="2748.46" y="1087.63" width="100" height="40" as="geometry" />
        </mxCell>
        <mxCell id="qH8AKJEnJc2PzJP4Vwxa-4" value="" style="endArrow=none;html=1;rounded=0;exitX=1;exitY=0;exitDx=0;exitDy=0;entryX=0;entryY=0.5;entryDx=0;entryDy=0;fontSize=20;" parent="1" source="qH8AKJEnJc2PzJP4Vwxa-3" target="qH8AKJEnJc2PzJP4Vwxa-2" edge="1">
          <mxGeometry relative="1" as="geometry">
            <mxPoint x="2947.96" y="1034.38" as="sourcePoint" />
            <mxPoint x="3002.96" y="982.38" as="targetPoint" />
          </mxGeometry>
        </mxCell>
        <mxCell id="qH8AKJEnJc2PzJP4Vwxa-5" value="prezime" style="ellipse;whiteSpace=wrap;html=1;align=center;fontSize=20;" parent="1" vertex="1">
          <mxGeometry x="2931.96" y="1158.96" width="125" height="38" as="geometry" />
        </mxCell>
        <mxCell id="qH8AKJEnJc2PzJP4Vwxa-6" value="" style="endArrow=none;html=1;rounded=0;exitX=0.5;exitY=1;exitDx=0;exitDy=0;entryX=0.368;entryY=0.114;entryDx=0;entryDy=0;fontSize=20;entryPerimeter=0;" parent="1" source="qH8AKJEnJc2PzJP4Vwxa-2" target="qH8AKJEnJc2PzJP4Vwxa-5" edge="1">
          <mxGeometry relative="1" as="geometry">
            <mxPoint x="3060.46" y="995.3800000000001" as="sourcePoint" />
            <mxPoint x="3262.46" y="1077.88" as="targetPoint" />
          </mxGeometry>
        </mxCell>
        <mxCell id="qH8AKJEnJc2PzJP4Vwxa-7" value="broj_telefona" style="ellipse;whiteSpace=wrap;html=1;align=center;fontSize=20;" parent="1" vertex="1">
          <mxGeometry x="2815.96" y="1132.96" width="127" height="39" as="geometry" />
        </mxCell>
        <mxCell id="qH8AKJEnJc2PzJP4Vwxa-8" value="" style="endArrow=none;html=1;rounded=0;exitX=0.25;exitY=1;exitDx=0;exitDy=0;entryX=0.5;entryY=0;entryDx=0;entryDy=0;fontSize=20;" parent="1" source="qH8AKJEnJc2PzJP4Vwxa-2" target="qH8AKJEnJc2PzJP4Vwxa-7" edge="1">
          <mxGeometry relative="1" as="geometry">
            <mxPoint x="3060.46" y="1023.3800000000001" as="sourcePoint" />
            <mxPoint x="3278.46" y="1147.38" as="targetPoint" />
          </mxGeometry>
        </mxCell>
        <mxCell id="qH8AKJEnJc2PzJP4Vwxa-10" value="ostavlja" style="shape=rhombus;perimeter=rhombusPerimeter;whiteSpace=wrap;html=1;align=center;fontSize=20;" parent="1" vertex="1">
          <mxGeometry x="2662" y="990" width="120" height="60" as="geometry" />
        </mxCell>
        <mxCell id="qH8AKJEnJc2PzJP4Vwxa-11" value="" style="endArrow=none;html=1;rounded=0;exitX=0.633;exitY=0.929;exitDx=0;exitDy=0;exitPerimeter=0;entryX=0;entryY=0.25;entryDx=0;entryDy=0;fontSize=20;" parent="1" source="qH8AKJEnJc2PzJP4Vwxa-10" target="qH8AKJEnJc2PzJP4Vwxa-2" edge="1">
          <mxGeometry relative="1" as="geometry">
            <mxPoint x="2795" y="1118" as="sourcePoint" />
            <mxPoint x="2955" y="1118" as="targetPoint" />
          </mxGeometry>
        </mxCell>
        <mxCell id="qH8AKJEnJc2PzJP4Vwxa-23" value="(1,N)" style="edgeLabel;html=1;align=center;verticalAlign=middle;resizable=0;points=[];fontSize=20;" parent="qH8AKJEnJc2PzJP4Vwxa-11" vertex="1" connectable="0">
          <mxGeometry x="0.3382" y="-4" relative="1" as="geometry">
            <mxPoint as="offset" />
          </mxGeometry>
        </mxCell>
        <mxCell id="qH8AKJEnJc2PzJP4Vwxa-12" value="" style="endArrow=none;html=1;rounded=0;exitX=0.5;exitY=1;exitDx=0;exitDy=0;entryX=0.5;entryY=0;entryDx=0;entryDy=0;fontSize=20;" parent="1" source="Ie1zxg29YfYXZfsm2byp-2" target="qH8AKJEnJc2PzJP4Vwxa-10" edge="1">
          <mxGeometry relative="1" as="geometry">
            <mxPoint x="2821" y="923" as="sourcePoint" />
            <mxPoint x="2981" y="923" as="targetPoint" />
          </mxGeometry>
        </mxCell>
        <mxCell id="qH8AKJEnJc2PzJP4Vwxa-24" value="(1,1)" style="edgeLabel;html=1;align=center;verticalAlign=middle;resizable=0;points=[];fontSize=20;" parent="qH8AKJEnJc2PzJP4Vwxa-12" vertex="1" connectable="0">
          <mxGeometry x="-0.6033" y="-3" relative="1" as="geometry">
            <mxPoint as="offset" />
          </mxGeometry>
        </mxCell>
        <mxCell id="qH8AKJEnJc2PzJP4Vwxa-13" value="pravi" style="shape=rhombus;perimeter=rhombusPerimeter;whiteSpace=wrap;html=1;align=center;fontSize=20;" parent="1" vertex="1">
          <mxGeometry x="3040" y="875" width="120" height="60" as="geometry" />
        </mxCell>
        <mxCell id="qH8AKJEnJc2PzJP4Vwxa-14" value="" style="endArrow=none;html=1;rounded=0;exitX=0.5;exitY=1;exitDx=0;exitDy=0;entryX=0.75;entryY=0;entryDx=0;entryDy=0;fontSize=20;" parent="1" source="qH8AKJEnJc2PzJP4Vwxa-13" target="qH8AKJEnJc2PzJP4Vwxa-2" edge="1">
          <mxGeometry relative="1" as="geometry">
            <mxPoint x="3055" y="1001" as="sourcePoint" />
            <mxPoint x="3215" y="1001" as="targetPoint" />
          </mxGeometry>
        </mxCell>
        <mxCell id="qH8AKJEnJc2PzJP4Vwxa-21" value="(1,N)" style="edgeLabel;html=1;align=center;verticalAlign=middle;resizable=0;points=[];fontSize=20;" parent="qH8AKJEnJc2PzJP4Vwxa-14" vertex="1" connectable="0">
          <mxGeometry x="0.6275" y="1" relative="1" as="geometry">
            <mxPoint as="offset" />
          </mxGeometry>
        </mxCell>
        <mxCell id="qH8AKJEnJc2PzJP4Vwxa-15" value="" style="endArrow=none;html=1;rounded=0;exitX=0.5;exitY=1;exitDx=0;exitDy=0;entryX=0.5;entryY=0;entryDx=0;entryDy=0;fontSize=20;" parent="1" source="LZrvzb4El88QJyoIHWKF-45" target="qH8AKJEnJc2PzJP4Vwxa-13" edge="1">
          <mxGeometry relative="1" as="geometry">
            <mxPoint x="3094" y="793" as="sourcePoint" />
            <mxPoint x="3254" y="793" as="targetPoint" />
          </mxGeometry>
        </mxCell>
        <mxCell id="qH8AKJEnJc2PzJP4Vwxa-22" value="(1,N)" style="edgeLabel;html=1;align=center;verticalAlign=middle;resizable=0;points=[];fontSize=20;" parent="qH8AKJEnJc2PzJP4Vwxa-15" vertex="1" connectable="0">
          <mxGeometry x="-0.7548" y="-2" relative="1" as="geometry">
            <mxPoint as="offset" />
          </mxGeometry>
        </mxCell>
        <mxCell id="qH8AKJEnJc2PzJP4Vwxa-16" value="ima" style="shape=rhombus;perimeter=rhombusPerimeter;whiteSpace=wrap;html=1;align=center;fontSize=20;" parent="1" vertex="1">
          <mxGeometry x="3259" y="950" width="120" height="60" as="geometry" />
        </mxCell>
        <mxCell id="qH8AKJEnJc2PzJP4Vwxa-17" value="" style="endArrow=none;html=1;rounded=0;exitX=1;exitY=0.5;exitDx=0;exitDy=0;entryX=0.15;entryY=0.728;entryDx=0;entryDy=0;entryPerimeter=0;fontSize=20;" parent="1" source="qH8AKJEnJc2PzJP4Vwxa-2" target="qH8AKJEnJc2PzJP4Vwxa-16" edge="1">
          <mxGeometry relative="1" as="geometry">
            <mxPoint x="3172" y="1079" as="sourcePoint" />
            <mxPoint x="3332" y="1079" as="targetPoint" />
          </mxGeometry>
        </mxCell>
        <mxCell id="qH8AKJEnJc2PzJP4Vwxa-25" value="(1,1)" style="edgeLabel;html=1;align=center;verticalAlign=middle;resizable=0;points=[];fontSize=20;" parent="qH8AKJEnJc2PzJP4Vwxa-17" vertex="1" connectable="0">
          <mxGeometry x="-0.8181" relative="1" as="geometry">
            <mxPoint as="offset" />
          </mxGeometry>
        </mxCell>
        <mxCell id="qH8AKJEnJc2PzJP4Vwxa-18" value="" style="endArrow=none;html=1;rounded=0;exitX=1;exitY=0;exitDx=0;exitDy=0;entryX=0;entryY=1;entryDx=0;entryDy=0;fontSize=20;" parent="1" source="qH8AKJEnJc2PzJP4Vwxa-16" target="Ie1zxg29YfYXZfsm2byp-37" edge="1">
          <mxGeometry relative="1" as="geometry">
            <mxPoint x="3614" y="975" as="sourcePoint" />
            <mxPoint x="3774" y="975" as="targetPoint" />
          </mxGeometry>
        </mxCell>
        <mxCell id="qH8AKJEnJc2PzJP4Vwxa-26" value="(1,N)" style="edgeLabel;html=1;align=center;verticalAlign=middle;resizable=0;points=[];fontSize=20;" parent="qH8AKJEnJc2PzJP4Vwxa-18" vertex="1" connectable="0">
          <mxGeometry x="0.8094" y="2" relative="1" as="geometry">
            <mxPoint as="offset" />
          </mxGeometry>
        </mxCell>
        <mxCell id="YhFXoBqmqudt9saBEJGC-2" value="" style="endArrow=none;html=1;rounded=0;exitX=0.25;exitY=1;exitDx=0;exitDy=0;fontSize=20;entryX=1;entryY=0;entryDx=0;entryDy=0;" parent="1" source="LZrvzb4El88QJyoIHWKF-45" target="pxThBm1JWMvQDQ2jlai6-5" edge="1">
          <mxGeometry relative="1" as="geometry">
            <mxPoint x="3098" y="707" as="sourcePoint" />
            <mxPoint x="2912" y="715" as="targetPoint" />
          </mxGeometry>
        </mxCell>
        <mxCell id="pxThBm1JWMvQDQ2jlai6-8" value="(1,1)" style="edgeLabel;html=1;align=center;verticalAlign=middle;resizable=0;points=[];fontSize=15;" parent="YhFXoBqmqudt9saBEJGC-2" vertex="1" connectable="0">
          <mxGeometry x="-0.2674" y="-1" relative="1" as="geometry">
            <mxPoint x="1" as="offset" />
          </mxGeometry>
        </mxCell>
        <mxCell id="o7n648XBuUX_tCWZrf2j-4" value="Adresa" style="whiteSpace=wrap;html=1;align=center;fontSize=19;strokeWidth=2;" parent="1" vertex="1">
          <mxGeometry x="780" y="4.82" width="117" height="53" as="geometry" />
        </mxCell>
        <mxCell id="o7n648XBuUX_tCWZrf2j-5" value="grad" style="ellipse;whiteSpace=wrap;html=1;align=center;fontSize=19;strokeWidth=2;" parent="1" vertex="1">
          <mxGeometry x="658" y="-98.18" width="100" height="40" as="geometry" />
        </mxCell>
        <mxCell id="o7n648XBuUX_tCWZrf2j-7" value="br_ulice" style="ellipse;whiteSpace=wrap;html=1;align=center;fontSize=19;strokeWidth=2;" parent="1" vertex="1">
          <mxGeometry x="768" y="-117" width="100" height="40" as="geometry" />
        </mxCell>
        <mxCell id="o7n648XBuUX_tCWZrf2j-8" value="postanski_broj" style="ellipse;whiteSpace=wrap;html=1;align=center;fontSize=19;strokeWidth=2;" parent="1" vertex="1">
          <mxGeometry x="824" y="-77" width="118" height="39" as="geometry" />
        </mxCell>
        <mxCell id="o7n648XBuUX_tCWZrf2j-9" value="" style="endArrow=none;html=1;rounded=0;exitX=0.7;exitY=0.975;exitDx=0;exitDy=0;exitPerimeter=0;entryX=0;entryY=0;entryDx=0;entryDy=0;fontSize=19;" parent="1" source="o7n648XBuUX_tCWZrf2j-5" target="o7n648XBuUX_tCWZrf2j-4" edge="1">
          <mxGeometry relative="1" as="geometry">
            <mxPoint x="754" y="83.82" as="sourcePoint" />
            <mxPoint x="780" y="-20.18" as="targetPoint" />
          </mxGeometry>
        </mxCell>
        <mxCell id="o7n648XBuUX_tCWZrf2j-11" value="" style="endArrow=none;html=1;rounded=0;exitX=0.34;exitY=1;exitDx=0;exitDy=0;exitPerimeter=0;entryX=0.154;entryY=-0.015;entryDx=0;entryDy=0;entryPerimeter=0;fontSize=19;" parent="1" source="o7n648XBuUX_tCWZrf2j-7" target="o7n648XBuUX_tCWZrf2j-4" edge="1">
          <mxGeometry relative="1" as="geometry">
            <mxPoint x="840" y="-58.18" as="sourcePoint" />
            <mxPoint x="818" y="17.82" as="targetPoint" />
          </mxGeometry>
        </mxCell>
        <mxCell id="o7n648XBuUX_tCWZrf2j-12" value="" style="endArrow=none;html=1;rounded=0;exitX=0;exitY=1;exitDx=0;exitDy=0;entryX=0.35;entryY=-0.015;entryDx=0;entryDy=0;fontSize=19;entryPerimeter=0;" parent="1" source="o7n648XBuUX_tCWZrf2j-8" target="o7n648XBuUX_tCWZrf2j-4" edge="1">
          <mxGeometry relative="1" as="geometry">
            <mxPoint x="931" y="-32.18" as="sourcePoint" />
            <mxPoint x="863" y="16.82" as="targetPoint" />
          </mxGeometry>
        </mxCell>
        <mxCell id="o7n648XBuUX_tCWZrf2j-13" value="ima" style="shape=rhombus;perimeter=rhombusPerimeter;whiteSpace=wrap;html=1;align=center;fontSize=19;strokeWidth=2;" parent="1" vertex="1">
          <mxGeometry x="643" y="75.82" width="120" height="60" as="geometry" />
        </mxCell>
        <mxCell id="o7n648XBuUX_tCWZrf2j-14" value="" style="endArrow=none;html=1;rounded=0;exitX=0;exitY=1;exitDx=0;exitDy=0;entryX=1;entryY=0;entryDx=0;entryDy=0;fontSize=19;" parent="1" source="o7n648XBuUX_tCWZrf2j-4" target="o7n648XBuUX_tCWZrf2j-13" edge="1">
          <mxGeometry relative="1" as="geometry">
            <mxPoint x="644" y="112.82" as="sourcePoint" />
            <mxPoint x="567" y="188.82" as="targetPoint" />
          </mxGeometry>
        </mxCell>
        <mxCell id="NqhwIcATW6oFcgkaRpCE-4" value="(1,N)" style="edgeLabel;html=1;align=center;verticalAlign=middle;resizable=0;points=[];fontSize=19;" parent="o7n648XBuUX_tCWZrf2j-14" vertex="1" connectable="0">
          <mxGeometry x="-0.3585" y="4" relative="1" as="geometry">
            <mxPoint as="offset" />
          </mxGeometry>
        </mxCell>
        <mxCell id="o7n648XBuUX_tCWZrf2j-15" value="ima" style="shape=rhombus;perimeter=rhombusPerimeter;whiteSpace=wrap;html=1;align=center;fontSize=19;strokeWidth=2;" parent="1" vertex="1">
          <mxGeometry x="425" y="71" width="120" height="60" as="geometry" />
        </mxCell>
        <mxCell id="o7n648XBuUX_tCWZrf2j-16" value="" style="endArrow=none;html=1;rounded=0;exitX=0;exitY=0.5;exitDx=0;exitDy=0;entryX=1;entryY=0;entryDx=0;entryDy=0;fontSize=19;" parent="1" source="o7n648XBuUX_tCWZrf2j-4" target="o7n648XBuUX_tCWZrf2j-15" edge="1">
          <mxGeometry relative="1" as="geometry">
            <mxPoint x="793" y="26" as="sourcePoint" />
            <mxPoint x="704" y="38" as="targetPoint" />
          </mxGeometry>
        </mxCell>
        <mxCell id="NqhwIcATW6oFcgkaRpCE-2" value="(1,N)" style="edgeLabel;html=1;align=center;verticalAlign=middle;resizable=0;points=[];fontSize=19;" parent="o7n648XBuUX_tCWZrf2j-16" vertex="1" connectable="0">
          <mxGeometry x="-0.8107" y="4" relative="1" as="geometry">
            <mxPoint x="1" as="offset" />
          </mxGeometry>
        </mxCell>
        <mxCell id="o7n648XBuUX_tCWZrf2j-17" value="ima" style="shape=rhombus;perimeter=rhombusPerimeter;whiteSpace=wrap;html=1;align=center;fontSize=19;strokeWidth=2;" parent="1" vertex="1">
          <mxGeometry x="942" y="96.82" width="120" height="60" as="geometry" />
        </mxCell>
        <mxCell id="o7n648XBuUX_tCWZrf2j-18" value="" style="endArrow=none;html=1;rounded=0;exitX=1;exitY=0.75;exitDx=0;exitDy=0;entryX=0.323;entryY=0.146;entryDx=0;entryDy=0;entryPerimeter=0;fontSize=19;" parent="1" source="o7n648XBuUX_tCWZrf2j-4" target="o7n648XBuUX_tCWZrf2j-17" edge="1">
          <mxGeometry relative="1" as="geometry">
            <mxPoint x="962" y="57.82" as="sourcePoint" />
            <mxPoint x="1122" y="57.82" as="targetPoint" />
          </mxGeometry>
        </mxCell>
        <mxCell id="o7n648XBuUX_tCWZrf2j-25" value="(1,N)" style="edgeLabel;html=1;align=center;verticalAlign=middle;resizable=0;points=[];fontSize=19;" parent="o7n648XBuUX_tCWZrf2j-18" vertex="1" connectable="0">
          <mxGeometry x="-0.5577" y="5" relative="1" as="geometry">
            <mxPoint y="1" as="offset" />
          </mxGeometry>
        </mxCell>
        <mxCell id="o7n648XBuUX_tCWZrf2j-19" value="" style="endArrow=none;html=1;rounded=0;exitX=0.646;exitY=0.896;exitDx=0;exitDy=0;entryX=0.25;entryY=0;entryDx=0;entryDy=0;exitPerimeter=0;fontSize=19;" parent="1" source="o7n648XBuUX_tCWZrf2j-17" target="f6Gl58Puo9PYDMiO8ByM-54" edge="1">
          <mxGeometry relative="1" as="geometry">
            <mxPoint x="910" y="13" as="sourcePoint" />
            <mxPoint x="1015" y="65" as="targetPoint" />
          </mxGeometry>
        </mxCell>
        <mxCell id="o7n648XBuUX_tCWZrf2j-24" value="(1,1)" style="edgeLabel;html=1;align=center;verticalAlign=middle;resizable=0;points=[];fontSize=19;" parent="o7n648XBuUX_tCWZrf2j-19" vertex="1" connectable="0">
          <mxGeometry x="0.6995" y="1" relative="1" as="geometry">
            <mxPoint y="-4" as="offset" />
          </mxGeometry>
        </mxCell>
        <mxCell id="o7n648XBuUX_tCWZrf2j-20" value="" style="endArrow=none;html=1;rounded=0;exitX=0.5;exitY=0;exitDx=0;exitDy=0;entryX=0.294;entryY=1.005;entryDx=0;entryDy=0;entryPerimeter=0;fontSize=19;" parent="1" source="8CZMm7A_pFt9U8UrvjIo-80" target="o7n648XBuUX_tCWZrf2j-21" edge="1">
          <mxGeometry relative="1" as="geometry">
            <mxPoint x="676" y="442" as="sourcePoint" />
            <mxPoint x="702" y="494" as="targetPoint" />
          </mxGeometry>
        </mxCell>
        <mxCell id="o7n648XBuUX_tCWZrf2j-21" value="jedinična_cena" style="ellipse;whiteSpace=wrap;html=1;align=center;fontSize=19;strokeWidth=2;" parent="1" vertex="1">
          <mxGeometry x="650" y="456.5" width="143" height="48" as="geometry" />
        </mxCell>
        <mxCell id="o7n648XBuUX_tCWZrf2j-22" value="status" style="ellipse;whiteSpace=wrap;html=1;align=center;fontSize=19;strokeWidth=2;" parent="1" vertex="1">
          <mxGeometry x="1612" y="650" width="100" height="40" as="geometry" />
        </mxCell>
        <mxCell id="o7n648XBuUX_tCWZrf2j-23" value="" style="endArrow=none;html=1;rounded=0;exitX=0;exitY=0.5;exitDx=0;exitDy=0;entryX=1;entryY=0.5;entryDx=0;entryDy=0;fontSize=19;" parent="1" source="o7n648XBuUX_tCWZrf2j-22" target="f6Gl58Puo9PYDMiO8ByM-65" edge="1">
          <mxGeometry relative="1" as="geometry">
            <mxPoint x="1565" y="727" as="sourcePoint" />
            <mxPoint x="1547" y="689" as="targetPoint" />
          </mxGeometry>
        </mxCell>
        <mxCell id="pxThBm1JWMvQDQ2jlai6-1" value="Vrsta_narudžbe" style="whiteSpace=wrap;html=1;align=center;fontSize=15;" parent="1" vertex="1">
          <mxGeometry x="2721" y="832" width="113" height="47" as="geometry" />
        </mxCell>
        <mxCell id="pxThBm1JWMvQDQ2jlai6-2" value="" style="endArrow=none;html=1;rounded=0;fontSize=15;entryX=0.5;entryY=1;entryDx=0;entryDy=0;exitX=0.5;exitY=0;exitDx=0;exitDy=0;" parent="1" source="pxThBm1JWMvQDQ2jlai6-3" target="pxThBm1JWMvQDQ2jlai6-1" edge="1">
          <mxGeometry relative="1" as="geometry">
            <mxPoint x="2784" y="845" as="sourcePoint" />
            <mxPoint x="2925" y="728" as="targetPoint" />
          </mxGeometry>
        </mxCell>
        <mxCell id="pxThBm1JWMvQDQ2jlai6-3" value="naziv" style="ellipse;whiteSpace=wrap;html=1;align=center;fontSize=15;" parent="1" vertex="1">
          <mxGeometry x="2758" y="928.63" width="100" height="40" as="geometry" />
        </mxCell>
        <mxCell id="pxThBm1JWMvQDQ2jlai6-5" value="ima" style="shape=rhombus;perimeter=rhombusPerimeter;whiteSpace=wrap;html=1;align=center;fontSize=15;" parent="1" vertex="1">
          <mxGeometry x="2738" y="694" width="120" height="60" as="geometry" />
        </mxCell>
        <mxCell id="pxThBm1JWMvQDQ2jlai6-6" value="" style="endArrow=none;html=1;rounded=0;exitX=0.5;exitY=1;exitDx=0;exitDy=0;entryX=0.5;entryY=0;entryDx=0;entryDy=0;" parent="1" source="pxThBm1JWMvQDQ2jlai6-5" target="pxThBm1JWMvQDQ2jlai6-1" edge="1">
          <mxGeometry relative="1" as="geometry">
            <mxPoint x="2821" y="780" as="sourcePoint" />
            <mxPoint x="2981" y="780" as="targetPoint" />
          </mxGeometry>
        </mxCell>
        <mxCell id="pxThBm1JWMvQDQ2jlai6-7" value="(1,N)" style="edgeLabel;html=1;align=center;verticalAlign=middle;resizable=0;points=[];fontSize=15;" parent="pxThBm1JWMvQDQ2jlai6-6" vertex="1" connectable="0">
          <mxGeometry x="0.4544" y="-2" relative="1" as="geometry">
            <mxPoint as="offset" />
          </mxGeometry>
        </mxCell>
        <mxCell id="NqhwIcATW6oFcgkaRpCE-7" value="naziv_ulice" style="ellipse;whiteSpace=wrap;html=1;align=center;fontSize=19;strokeWidth=2;" parent="1" vertex="1">
          <mxGeometry x="975" y="-95.36000000000001" width="117" height="37.18" as="geometry" />
        </mxCell>
        <mxCell id="NqhwIcATW6oFcgkaRpCE-8" value="" style="endArrow=none;html=1;rounded=0;exitX=0.011;exitY=0.646;exitDx=0;exitDy=0;exitPerimeter=0;entryX=1;entryY=0;entryDx=0;entryDy=0;fontSize=19;" parent="1" source="NqhwIcATW6oFcgkaRpCE-7" target="o7n648XBuUX_tCWZrf2j-4" edge="1">
          <mxGeometry relative="1" as="geometry">
            <mxPoint x="922" y="28.82" as="sourcePoint" />
            <mxPoint x="943" y="91" as="targetPoint" />
          </mxGeometry>
        </mxCell>
        <mxCell id="NqhwIcATW6oFcgkaRpCE-9" value="" style="endArrow=none;html=1;rounded=0;exitX=0.641;exitY=0.978;exitDx=0;exitDy=0;exitPerimeter=0;entryX=0.5;entryY=0;entryDx=0;entryDy=0;" parent="1" source="o7n648XBuUX_tCWZrf2j-4" target="NqhwIcATW6oFcgkaRpCE-10" edge="1">
          <mxGeometry relative="1" as="geometry">
            <mxPoint x="845" y="208" as="sourcePoint" />
            <mxPoint x="871" y="299" as="targetPoint" />
          </mxGeometry>
        </mxCell>
        <mxCell id="NqhwIcATW6oFcgkaRpCE-13" value="(1,N)" style="edgeLabel;html=1;align=center;verticalAlign=middle;resizable=0;points=[];fontSize=16;" parent="NqhwIcATW6oFcgkaRpCE-9" vertex="1" connectable="0">
          <mxGeometry x="-0.8229" y="-1" relative="1" as="geometry">
            <mxPoint as="offset" />
          </mxGeometry>
        </mxCell>
        <mxCell id="NqhwIcATW6oFcgkaRpCE-10" value="ima" style="shape=rhombus;perimeter=rhombusPerimeter;whiteSpace=wrap;html=1;align=center;fontSize=19;strokeWidth=2;" parent="1" vertex="1">
          <mxGeometry x="837" y="311.5" width="120" height="60" as="geometry" />
        </mxCell>
        <mxCell id="NqhwIcATW6oFcgkaRpCE-11" value="" style="endArrow=none;html=1;rounded=0;exitX=0.5;exitY=1;exitDx=0;exitDy=0;entryX=0;entryY=0;entryDx=0;entryDy=0;fontSize=19;" parent="1" source="NqhwIcATW6oFcgkaRpCE-10" target="f6Gl58Puo9PYDMiO8ByM-76" edge="1">
          <mxGeometry relative="1" as="geometry">
            <mxPoint x="1100" y="470" as="sourcePoint" />
            <mxPoint x="1116" y="603" as="targetPoint" />
          </mxGeometry>
        </mxCell>
        <mxCell id="NqhwIcATW6oFcgkaRpCE-15" value="(1,1)" style="edgeLabel;html=1;align=center;verticalAlign=middle;resizable=0;points=[];fontSize=16;" parent="NqhwIcATW6oFcgkaRpCE-11" vertex="1" connectable="0">
          <mxGeometry x="0.7117" y="2" relative="1" as="geometry">
            <mxPoint as="offset" />
          </mxGeometry>
        </mxCell>
        <mxCell id="NqhwIcATW6oFcgkaRpCE-17" value="jeGlavna" style="ellipse;whiteSpace=wrap;html=1;fontSize=19;strokeWidth=2;" parent="1" vertex="1">
          <mxGeometry x="1095" y="47.17" width="114" height="43.83" as="geometry" />
        </mxCell>
        <mxCell id="NqhwIcATW6oFcgkaRpCE-18" value="" style="endArrow=none;html=1;rounded=0;exitX=0.237;exitY=0.935;exitDx=0;exitDy=0;exitPerimeter=0;fontSize=19;entryX=1;entryY=0;entryDx=0;entryDy=0;" parent="1" source="NqhwIcATW6oFcgkaRpCE-17" target="o7n648XBuUX_tCWZrf2j-17" edge="1">
          <mxGeometry relative="1" as="geometry">
            <mxPoint x="1147" y="-57.83000000000001" as="sourcePoint" />
            <mxPoint x="1125" y="120.88999999999999" as="targetPoint" />
          </mxGeometry>
        </mxCell>
        <mxCell id="DnYwj6tyy4rzSOWDZC6o-1" value="Drzava" style="rounded=0;whiteSpace=wrap;html=1;fontSize=19;strokeWidth=2;" parent="1" vertex="1">
          <mxGeometry x="1349" y="-87.50000000000004" width="120" height="60" as="geometry" />
        </mxCell>
        <mxCell id="DnYwj6tyy4rzSOWDZC6o-2" value="ima" style="shape=rhombus;perimeter=rhombusPerimeter;whiteSpace=wrap;html=1;align=center;fontSize=19;strokeWidth=2;" parent="1" vertex="1">
          <mxGeometry x="1115" y="-55.18000000000001" width="120" height="60" as="geometry" />
        </mxCell>
        <mxCell id="DnYwj6tyy4rzSOWDZC6o-3" value="" style="endArrow=none;html=1;rounded=0;exitX=1;exitY=0.5;exitDx=0;exitDy=0;entryX=0;entryY=0.5;entryDx=0;entryDy=0;fontSize=19;" parent="1" source="o7n648XBuUX_tCWZrf2j-4" target="DnYwj6tyy4rzSOWDZC6o-2" edge="1">
          <mxGeometry relative="1" as="geometry">
            <mxPoint x="902" y="36.36999999999993" as="sourcePoint" />
            <mxPoint x="1355" y="-112.41000000000001" as="targetPoint" />
          </mxGeometry>
        </mxCell>
        <mxCell id="DnYwj6tyy4rzSOWDZC6o-4" value="(1,1)" style="edgeLabel;html=1;align=center;verticalAlign=middle;resizable=0;points=[];fontSize=19;" parent="DnYwj6tyy4rzSOWDZC6o-3" vertex="1" connectable="0">
          <mxGeometry x="-0.5577" y="5" relative="1" as="geometry">
            <mxPoint y="1" as="offset" />
          </mxGeometry>
        </mxCell>
        <mxCell id="DnYwj6tyy4rzSOWDZC6o-5" value="" style="endArrow=none;html=1;rounded=0;exitX=1;exitY=0.5;exitDx=0;exitDy=0;entryX=0;entryY=0.5;entryDx=0;entryDy=0;fontSize=19;" parent="1" source="DnYwj6tyy4rzSOWDZC6o-2" target="DnYwj6tyy4rzSOWDZC6o-1" edge="1">
          <mxGeometry relative="1" as="geometry">
            <mxPoint x="1143" y="-157.23" as="sourcePoint" />
            <mxPoint x="1248" y="-105.23" as="targetPoint" />
          </mxGeometry>
        </mxCell>
        <mxCell id="DnYwj6tyy4rzSOWDZC6o-6" value="(1,N)" style="edgeLabel;html=1;align=center;verticalAlign=middle;resizable=0;points=[];fontSize=19;" parent="DnYwj6tyy4rzSOWDZC6o-5" vertex="1" connectable="0">
          <mxGeometry x="0.6995" y="1" relative="1" as="geometry">
            <mxPoint x="-19" y="-1" as="offset" />
          </mxGeometry>
        </mxCell>
        <mxCell id="DnYwj6tyy4rzSOWDZC6o-7" value="naziv" style="ellipse;whiteSpace=wrap;html=1;fontSize=19;strokeWidth=2;" parent="1" vertex="1">
          <mxGeometry x="1292" y="47.169999999999995" width="136" height="50" as="geometry" />
        </mxCell>
        <mxCell id="DnYwj6tyy4rzSOWDZC6o-8" value="" style="endArrow=none;html=1;rounded=0;entryX=0.25;entryY=1;entryDx=0;entryDy=0;fontSize=19;exitX=0.375;exitY=0.037;exitDx=0;exitDy=0;exitPerimeter=0;" parent="1" source="DnYwj6tyy4rzSOWDZC6o-7" target="DnYwj6tyy4rzSOWDZC6o-1" edge="1">
          <mxGeometry relative="1" as="geometry">
            <mxPoint x="1235" y="125.61999999999996" as="sourcePoint" />
            <mxPoint x="1331" y="-27.98" as="targetPoint" />
          </mxGeometry>
        </mxCell>
        <mxCell id="2Qq5rOciZnVluEqGWdvu-1" value="" style="endArrow=none;html=1;rounded=0;entryX=1;entryY=0.5;entryDx=0;entryDy=0;fontSize=19;exitX=0;exitY=0.5;exitDx=0;exitDy=0;" edge="1" parent="1" source="2Qq5rOciZnVluEqGWdvu-3" target="f6Gl58Puo9PYDMiO8ByM-36">
          <mxGeometry relative="1" as="geometry">
            <mxPoint x="185" y="476.82" as="sourcePoint" />
            <mxPoint x="156" y="342.82" as="targetPoint" />
          </mxGeometry>
        </mxCell>
        <mxCell id="2Qq5rOciZnVluEqGWdvu-2" value="&lt;font style=&quot;font-size: 16px;&quot;&gt;(1,N)&lt;/font&gt;" style="edgeLabel;html=1;align=center;verticalAlign=middle;resizable=0;points=[];fontSize=19;" connectable="0" vertex="1" parent="2Qq5rOciZnVluEqGWdvu-1">
          <mxGeometry x="0.7144" y="-2" relative="1" as="geometry">
            <mxPoint x="-3" y="2" as="offset" />
          </mxGeometry>
        </mxCell>
        <mxCell id="2Qq5rOciZnVluEqGWdvu-3" value="sarađuje" style="shape=rhombus;perimeter=rhombusPerimeter;whiteSpace=wrap;html=1;align=center;fontSize=19;strokeWidth=2;" vertex="1" parent="1">
          <mxGeometry x="351" y="205.28" width="120" height="60" as="geometry" />
        </mxCell>
        <mxCell id="2Qq5rOciZnVluEqGWdvu-4" value="" style="endArrow=none;html=1;rounded=0;entryX=1;entryY=0;entryDx=0;entryDy=0;fontSize=19;exitX=0;exitY=0.5;exitDx=0;exitDy=0;" edge="1" parent="1" target="2Qq5rOciZnVluEqGWdvu-3" source="f6Gl58Puo9PYDMiO8ByM-27">
          <mxGeometry relative="1" as="geometry">
            <mxPoint x="546" y="273" as="sourcePoint" />
            <mxPoint x="607" y="163.82" as="targetPoint" />
          </mxGeometry>
        </mxCell>
        <mxCell id="2Qq5rOciZnVluEqGWdvu-5" value="(1,N)" style="edgeLabel;html=1;align=center;verticalAlign=middle;resizable=0;points=[];fontSize=19;" vertex="1" connectable="0" parent="2Qq5rOciZnVluEqGWdvu-4">
          <mxGeometry x="-0.8107" y="4" relative="1" as="geometry">
            <mxPoint x="1" as="offset" />
          </mxGeometry>
        </mxCell>
      </root>
    </mxGraphModel>
  </diagram>
</mxfile>
